<?xml version="1.0" encoding="UTF-8"?>
<!DOCTYPE svg PUBLIC "-//W3C//DTD SVG 1.1//EN" "http://www.w3.org/Graphics/SVG/1.1/DTD/svg11.dtd">
<svg xmlns="http://www.w3.org/2000/svg" xmlns:xlink="http://www.w3.org/1999/xlink" version="1.1" width="93px" height="104px" viewBox="-0.5 -0.5 93 104" style="background-color: rgb(255, 255, 255);"><defs><linearGradient x1="0%" y1="0%" x2="100%" y2="0%" id="mx-gradient-9c9c9c-1-007aa3-1-e-0"><stop offset="0%" style="stop-color: rgb(156, 156, 156); stop-opacity: 1;"/><stop offset="100%" style="stop-color: rgb(0, 122, 163); stop-opacity: 1;"/></linearGradient><linearGradient x1="0%" y1="0%" x2="0%" y2="100%" id="mx-gradient-9c9c9c-1-007aa3-1-s-0"><stop offset="0%" style="stop-color: rgb(156, 156, 156); stop-opacity: 1;"/><stop offset="100%" style="stop-color: rgb(0, 122, 163); stop-opacity: 1;"/></linearGradient></defs><g><ellipse cx="42" cy="32" rx="30" ry="30" fill="url(#mx-gradient-9c9c9c-1-007aa3-1-e-0)" stroke="rgb(0, 0, 0)" stroke-width="4" pointer-events="none"/><path d="M 22 42 Q 62 42 62 82 Q 62 122 22 122 Z" fill="url(#mx-gradient-9c9c9c-1-007aa3-1-s-0)" stroke="rgb(0, 0, 0)" stroke-width="4" stroke-miterlimit="10" transform="rotate(-90,42,82)" pointer-events="none"/><path d="M 44.57 52.97 C 44.01 53.54 43.29 53.82 42.36 53.82 C 41.42 53.82 40.7 53.54 40.15 52.97 C 39.58 52.39 39.31 51.65 39.31 50.7 C 39.31 49.76 39.58 49.02 40.15 48.44 C 40.7 47.87 41.42 47.59 42.36 47.59 C 43.29 47.59 44.01 47.87 44.57 48.44 C 45.13 49.02 45.41 49.76 45.41 50.7 C 45.41 51.65 45.13 52.39 44.57 52.97 M 42.36 45.42 C 40.83 45.42 39.56 45.92 38.59 46.92 C 37.62 47.92 37.13 49.19 37.13 50.7 C 37.13 52.22 37.62 53.49 38.59 54.49 C 39.56 55.48 40.83 55.99 42.36 55.99 C 43.89 55.99 45.15 55.48 46.13 54.49 C 47.09 53.49 47.58 52.22 47.58 50.7 C 47.58 49.19 47.09 47.92 46.13 46.92 C 45.15 45.92 43.89 45.42 42.36 45.42 M 52.53 26.27 C 50.85 28.26 48.14 30.11 44.46 31.77 C 44.07 31.95 43.82 32.34 43.82 32.77 L 43.82 39.69 L 40.75 39.69 L 40.28 31.19 L 42.55 30.05 C 45.44 28.62 47.5 27.19 48.83 25.69 C 50.23 24.12 50.94 22.28 50.94 20.23 C 50.94 18 50.22 16.26 48.82 15.05 C 47.46 13.88 45.5 13.29 43.01 13.29 C 41.36 13.29 39.67 13.53 38 14 C 36.8 14.34 35.47 14.83 34.04 15.47 L 34.04 12.78 C 37.16 11.06 40.52 10.18 44.03 10.18 C 47.49 10.18 50.22 11.04 52.14 12.71 C 54.04 14.38 54.96 16.63 54.96 19.59 C 54.96 22.15 54.17 24.34 52.53 26.27 M 53.57 11.08 C 51.25 9.04 48.03 8.01 44.03 8.01 C 39.92 8.01 36.01 9.09 32.4 11.21 C 32.06 11.41 31.86 11.76 31.86 12.15 L 31.86 17.18 C 31.86 17.55 32.05 17.9 32.37 18.1 C 32.69 18.3 33.09 18.32 33.43 18.15 C 35.35 17.21 37.08 16.52 38.59 16.09 C 40.07 15.68 41.55 15.46 43.01 15.46 C 44.97 15.46 46.45 15.88 47.4 16.7 C 48.32 17.48 48.76 18.64 48.76 20.23 C 48.76 21.75 48.25 23.07 47.2 24.25 C 46.07 25.52 44.18 26.81 41.57 28.1 L 38.66 29.57 C 38.28 29.76 38.04 30.17 38.07 30.6 L 38.64 40.84 C 38.67 41.42 39.14 41.87 39.72 41.87 L 44.91 41.87 C 45.51 41.87 46 41.38 46 40.78 L 46 33.46 C 49.65 31.73 52.41 29.79 54.19 27.68 C 56.15 25.36 57.14 22.64 57.14 19.59 C 57.14 16.02 55.94 13.15 53.57 11.08" fill="rgb(255, 255, 255)" stroke="none" pointer-events="none"/></g></svg>