<?xml version="1.0" encoding="UTF-8" standalone="no"?><svg xmlns="http://www.w3.org/2000/svg" xmlns:xlink="http://www.w3.org/1999/xlink" contentScriptType="application/ecmascript" contentStyleType="text/css" height="476px" preserveAspectRatio="none" style="width:666px;height:476px;background:#FFFFFF;" version="1.1" viewBox="0 0 666 476" width="666px" zoomAndPan="magnify"><defs><filter height="300%" id="f4ii9pzrqpwtu" width="300%" x="-1" y="-1"><feGaussianBlur result="blurOut" stdDeviation="2.0"/><feColorMatrix in="blurOut" result="blurOut2" type="matrix" values="0 0 0 0 0 0 0 0 0 0 0 0 0 0 0 0 0 0 .4 0"/><feOffset dx="4.0" dy="4.0" in="blurOut2" result="blurOut3"/><feBlend in="SourceGraphic" in2="blurOut3" mode="normal"/></filter></defs><g><!--MD5=[b7aa3d950488e14f7134cb6bd4052ee4]
cluster UML Class Diagram--><polygon fill="#FFFFFF" filter="url(#f4ii9pzrqpwtu)" points="16,6,156,6,163,28.7999,649,28.7999,649,469,16,469,16,6" style="stroke:#000000;stroke-width:1.5;"/><line style="stroke:#000000;stroke-width:1.5;" x1="16" x2="163" y1="28.7999" y2="28.7999"/><text fill="#000000" font-family="sans-serif" font-size="14" font-weight="bold" lengthAdjust="spacing" textLength="134" x="20" y="21.9999">UML Class Diagram</text><!--MD5=[ca9f335de64b4a8de052cff8925391c1]
class OSC20--><rect codeLine="3" fill="#FEFECE" filter="url(#f4ii9pzrqpwtu)" height="48" id="OSC20" style="stroke:#A80036;stroke-width:1.5;" width="72" x="334" y="41"/><ellipse cx="349" cy="57" fill="#A9DCDF" rx="11" ry="11" style="stroke:#A80036;stroke-width:1.0;"/><path d="M349.9531,60.6563 Q349.9531,60.1563 350.2344,59.9844 Q350.5313,59.7969 351.0781,59.7969 L351.4688,59.7969 L351.0781,58.8125 L347.0313,58.8125 L346.6406,59.7969 L347.0313,59.7969 Q348.1406,59.7969 348.1406,60.6563 Q348.1406,61.5 347.0313,61.5 L344.7656,61.5 Q343.6406,61.5 343.6406,60.6563 Q343.6406,60.1406 343.9375,59.9688 Q344.2344,59.7969 344.7813,59.7969 L347.4219,53.2813 L346.3438,53.2813 Q345.2031,53.2813 345.2031,52.4375 Q345.2031,51.9219 345.5,51.7656 Q345.7969,51.5938 346.3438,51.5938 L350.0156,51.5938 L353.4063,59.7969 Q354.5625,59.7969 354.5625,60.6563 Q354.5625,61.5 353.4375,61.5 L351.0781,61.5 Q349.9531,61.5 349.9531,60.6563 Z M350.375,57.1094 L349.0469,53.8438 L347.7031,57.1094 L350.375,57.1094 Z " fill="#000000"/><text fill="#000000" font-family="sans-serif" font-size="12" font-style="italic" lengthAdjust="spacing" textLength="40" x="363" y="61.8">OSC20</text><line style="stroke:#A80036;stroke-width:1.5;" x1="335" x2="405" y1="73" y2="73"/><line style="stroke:#A80036;stroke-width:1.5;" x1="335" x2="405" y1="81" y2="81"/><!--MD5=[875a92afee6cf918925d474f6ff2f00a]
class PhysicalObject--><rect codeLine="4" fill="#FEFECE" filter="url(#f4ii9pzrqpwtu)" height="48" id="PhysicalObject" style="stroke:#A80036;stroke-width:1.5;" width="112" x="314" y="149"/><ellipse cx="329" cy="165" fill="#B4A7E5" rx="11" ry="11" style="stroke:#A80036;stroke-width:1.0;"/><path d="M331.6719,168.2969 Q332.2188,168.2969 332.5,168.4844 Q332.7813,168.6563 332.7813,169.1563 Q332.7813,170 331.6719,170 L326.5313,170 Q325.4063,170 325.4063,169.1563 Q325.4063,168.6563 325.6875,168.4844 Q325.9844,168.2969 326.5313,168.2969 L328.25,168.2969 L328.25,161.7813 L326.5313,161.7813 Q325.4063,161.7813 325.4063,160.9375 Q325.4063,160.4531 325.6875,160.2813 Q325.9844,160.0938 326.5313,160.0938 L331.6719,160.0938 Q332.2188,160.0938 332.5,160.2813 Q332.7813,160.4531 332.7813,160.9375 Q332.7813,161.7813 331.6719,161.7813 L329.9531,161.7813 L329.9531,168.2969 L331.6719,168.2969 Z " fill="#000000"/><text fill="#000000" font-family="sans-serif" font-size="12" font-style="italic" lengthAdjust="spacing" textLength="80" x="343" y="169.8">PhysicalObject</text><line style="stroke:#A80036;stroke-width:1.5;" x1="315" x2="425" y1="181" y2="181"/><line style="stroke:#A80036;stroke-width:1.5;" x1="315" x2="425" y1="189" y2="189"/><!--MD5=[03905b16bf24de4ca0e1c65e3bae05fa]
class TrafficParticipant--><rect codeLine="6" fill="#FEFECE" filter="url(#f4ii9pzrqpwtu)" height="48" id="TrafficParticipant" style="stroke:#A80036;stroke-width:1.5;" width="122" x="309" y="257"/><ellipse cx="324" cy="273" fill="#B4A7E5" rx="11" ry="11" style="stroke:#A80036;stroke-width:1.0;"/><path d="M326.6719,276.2969 Q327.2188,276.2969 327.5,276.4844 Q327.7813,276.6563 327.7813,277.1563 Q327.7813,278 326.6719,278 L321.5313,278 Q320.4063,278 320.4063,277.1563 Q320.4063,276.6563 320.6875,276.4844 Q320.9844,276.2969 321.5313,276.2969 L323.25,276.2969 L323.25,269.7813 L321.5313,269.7813 Q320.4063,269.7813 320.4063,268.9375 Q320.4063,268.4531 320.6875,268.2813 Q320.9844,268.0938 321.5313,268.0938 L326.6719,268.0938 Q327.2188,268.0938 327.5,268.2813 Q327.7813,268.4531 327.7813,268.9375 Q327.7813,269.7813 326.6719,269.7813 L324.9531,269.7813 L324.9531,276.2969 L326.6719,276.2969 Z " fill="#000000"/><text fill="#000000" font-family="sans-serif" font-size="12" font-style="italic" lengthAdjust="spacing" textLength="90" x="338" y="277.8">TrafficParticipant</text><line style="stroke:#A80036;stroke-width:1.5;" x1="310" x2="430" y1="289" y2="289"/><line style="stroke:#A80036;stroke-width:1.5;" x1="310" x2="430" y1="297" y2="297"/><!--MD5=[3aa0d89c6bfdcbf7f32042cedac57549]
class Vehicle--><rect codeLine="7" fill="#FEFECE" filter="url(#f4ii9pzrqpwtu)" height="48" id="Vehicle" style="stroke:#A80036;stroke-width:1.5;" width="70" x="32" y="385"/><ellipse cx="47" cy="401" fill="#ADD1B2" rx="11" ry="11" style="stroke:#A80036;stroke-width:1.0;"/><path d="M49.1563,403.4219 Q49.1563,402.2813 50,402.2813 Q50.8438,402.2813 50.8438,403.4219 L50.8438,406 L42.8438,406 Q41.7188,406 41.7188,405.1563 Q41.7188,404.2969 42.8438,404.2969 L43.0938,404.2969 L43.0938,397.7813 L42.8438,397.7813 Q41.7188,397.7813 41.7188,396.9375 Q41.7188,396.4531 42,396.2813 Q42.2969,396.0938 42.8438,396.0938 L50.4688,396.0938 L50.4688,398.6406 Q50.4688,399.7813 49.625,399.7813 Q48.7813,399.7813 48.7813,398.6406 L48.7813,397.7813 L44.7969,397.7813 L44.7969,400.1875 L46.25,400.1875 L46.25,400.0625 Q46.25,398.9219 47.0781,398.9219 Q47.9219,398.9219 47.9219,400.0625 L47.9219,401.9844 Q47.9219,403.1094 47.0938,403.1094 Q46.25,403.1094 46.25,401.9844 L46.25,401.875 L44.7969,401.875 L44.7969,404.2969 L49.1563,404.2969 L49.1563,403.4219 Z " fill="#000000"/><text fill="#000000" font-family="sans-serif" font-size="12" lengthAdjust="spacing" textLength="38" x="61" y="405.8">Vehicle</text><line style="stroke:#A80036;stroke-width:1.5;" x1="33" x2="101" y1="417" y2="417"/><line style="stroke:#A80036;stroke-width:1.5;" x1="33" x2="101" y1="425" y2="425"/><!--MD5=[92511097f7189a9fbcca7debaefca19c]
class IntendedInfrastructure--><rect codeLine="9" fill="#FEFECE" filter="url(#f4ii9pzrqpwtu)" height="87.5997" id="IntendedInfrastructure" style="stroke:#A80036;stroke-width:1.5;" width="143" x="137.5" y="365"/><ellipse cx="152.5" cy="381" fill="#EB937F" rx="11" ry="11" style="stroke:#A80036;stroke-width:1.0;"/><path d="M154.6563,383.4219 Q154.6563,382.2813 155.5,382.2813 Q156.3438,382.2813 156.3438,383.4219 L156.3438,386 L148.3438,386 Q147.2188,386 147.2188,385.1563 Q147.2188,384.2969 148.3438,384.2969 L148.5938,384.2969 L148.5938,377.7813 L148.3438,377.7813 Q147.2188,377.7813 147.2188,376.9375 Q147.2188,376.4531 147.5,376.2813 Q147.7969,376.0938 148.3438,376.0938 L155.9688,376.0938 L155.9688,378.6406 Q155.9688,379.7813 155.125,379.7813 Q154.2813,379.7813 154.2813,378.6406 L154.2813,377.7813 L150.2969,377.7813 L150.2969,380.1875 L151.75,380.1875 L151.75,380.0625 Q151.75,378.9219 152.5781,378.9219 Q153.4219,378.9219 153.4219,380.0625 L153.4219,381.9844 Q153.4219,383.1094 152.5938,383.1094 Q151.75,383.1094 151.75,381.9844 L151.75,381.875 L150.2969,381.875 L150.2969,384.2969 L154.6563,384.2969 L154.6563,383.4219 Z " fill="#000000"/><text fill="#000000" font-family="sans-serif" font-size="12" lengthAdjust="spacing" textLength="111" x="166.5" y="385.8">IntendedInfrastructure</text><line style="stroke:#A80036;stroke-width:1.5;" x1="138.5" x2="279.5" y1="397" y2="397"/><text fill="#000000" font-family="sans-serif" font-size="11" lengthAdjust="spacing" textLength="31" x="143.5" y="411.9999">driving</text><text fill="#000000" font-family="sans-serif" font-size="11" lengthAdjust="spacing" textLength="41" x="143.5" y="425.1998">sidewalk</text><text fill="#000000" font-family="sans-serif" font-size="11" lengthAdjust="spacing" textLength="28" x="143.5" y="438.3997">biking</text><line style="stroke:#A80036;stroke-width:1.5;" x1="138.5" x2="279.5" y1="444.5997" y2="444.5997"/><!--MD5=[4ac894b72113ea4ed08a7252d51a345e]
class dynamicLimits--><rect codeLine="15" fill="#FEFECE" filter="url(#f4ii9pzrqpwtu)" height="87.5997" id="dynamicLimits" style="stroke:#A80036;stroke-width:1.5;" width="109" x="315.5" y="365"/><ellipse cx="330.5" cy="381" fill="#ADD1B2" rx="11" ry="11" style="stroke:#A80036;stroke-width:1.0;"/><path d="M329.8594,384.7813 Q330.6563,384.7813 331.2188,384.5938 Q331.7969,384.3906 332.0313,384.1719 Q332.2813,383.9375 332.5156,383.75 Q332.7656,383.5469 332.9844,383.5469 Q333.3281,383.5469 333.5781,383.8125 Q333.8438,384.0625 333.8438,384.3906 Q333.8438,385.125 332.6719,385.8125 Q331.5156,386.4844 329.8125,386.4844 Q327.6563,386.4844 326.2344,385.2188 Q324.8125,383.9531 324.8125,382.0156 L324.8125,380.8906 Q324.8125,378.8594 326.1406,377.4844 Q327.4688,376.0938 329.4375,376.0938 Q330.625,376.0938 331.8438,376.6719 L332.0156,376.75 Q332.3125,376.3438 332.7344,376.3438 Q333.2188,376.3438 333.3906,376.6406 Q333.5781,376.9219 333.5781,377.4688 L333.5781,378.8906 Q333.5781,380.0156 332.7344,380.0156 Q332.4219,380.0156 332.2188,379.8438 Q332.0313,379.6719 331.9844,379.5313 Q331.9531,379.375 331.9063,379.1094 Q331.7969,378.5938 331.2813,378.2813 Q330.7656,377.9688 330.3125,377.8906 Q329.875,377.7969 329.5,377.7969 Q328.2188,377.7969 327.3594,378.6719 Q326.5156,379.5469 326.5156,380.8906 L326.5156,381.9844 Q326.5156,383.2656 327.4219,384.0313 Q328.3281,384.7813 329.8594,384.7813 Z " fill="#000000"/><text fill="#000000" font-family="sans-serif" font-size="12" lengthAdjust="spacing" textLength="77" x="344.5" y="385.8">dynamicLimits</text><line style="stroke:#A80036;stroke-width:1.5;" x1="316.5" x2="423.5" y1="397" y2="397"/><text fill="#000000" font-family="sans-serif" font-size="11" lengthAdjust="spacing" textLength="51" x="321.5" y="411.9999">maxSpeed</text><text fill="#000000" font-family="sans-serif" font-size="11" lengthAdjust="spacing" textLength="80" x="321.5" y="425.1998">maxAcceleration</text><text fill="#000000" font-family="sans-serif" font-size="11" lengthAdjust="spacing" textLength="81" x="321.5" y="438.3997">maxDeceleration</text><line style="stroke:#A80036;stroke-width:1.5;" x1="316.5" x2="423.5" y1="444.5997" y2="444.5997"/><!--MD5=[09ce52be0ee7de43c61b6e2d59bf108b]
class Person--><rect fill="#FEFECE" filter="url(#f4ii9pzrqpwtu)" height="48" id="Person" style="stroke:#A80036;stroke-width:1.5;" width="68" x="460" y="385"/><ellipse cx="475" cy="401" fill="#ADD1B2" rx="11" ry="11" style="stroke:#A80036;stroke-width:1.0;"/><path d="M474.3594,404.7813 Q475.1563,404.7813 475.7188,404.5938 Q476.2969,404.3906 476.5313,404.1719 Q476.7813,403.9375 477.0156,403.75 Q477.2656,403.5469 477.4844,403.5469 Q477.8281,403.5469 478.0781,403.8125 Q478.3438,404.0625 478.3438,404.3906 Q478.3438,405.125 477.1719,405.8125 Q476.0156,406.4844 474.3125,406.4844 Q472.1563,406.4844 470.7344,405.2188 Q469.3125,403.9531 469.3125,402.0156 L469.3125,400.8906 Q469.3125,398.8594 470.6406,397.4844 Q471.9688,396.0938 473.9375,396.0938 Q475.125,396.0938 476.3438,396.6719 L476.5156,396.75 Q476.8125,396.3438 477.2344,396.3438 Q477.7188,396.3438 477.8906,396.6406 Q478.0781,396.9219 478.0781,397.4688 L478.0781,398.8906 Q478.0781,400.0156 477.2344,400.0156 Q476.9219,400.0156 476.7188,399.8438 Q476.5313,399.6719 476.4844,399.5313 Q476.4531,399.375 476.4063,399.1094 Q476.2969,398.5938 475.7813,398.2813 Q475.2656,397.9688 474.8125,397.8906 Q474.375,397.7969 474,397.7969 Q472.7188,397.7969 471.8594,398.6719 Q471.0156,399.5469 471.0156,400.8906 L471.0156,401.9844 Q471.0156,403.2656 471.9219,404.0313 Q472.8281,404.7813 474.3594,404.7813 Z " fill="#000000"/><text fill="#000000" font-family="sans-serif" font-size="12" lengthAdjust="spacing" textLength="36" x="489" y="405.8">Person</text><line style="stroke:#A80036;stroke-width:1.5;" x1="461" x2="527" y1="417" y2="417"/><line style="stroke:#A80036;stroke-width:1.5;" x1="461" x2="527" y1="425" y2="425"/><!--MD5=[7fd4401f5c5cb0e3d029c879cad30c04]
class Animal--><rect fill="#FEFECE" filter="url(#f4ii9pzrqpwtu)" height="48" id="Animal" style="stroke:#A80036;stroke-width:1.5;" width="69" x="563.5" y="385"/><ellipse cx="578.5" cy="401" fill="#ADD1B2" rx="11" ry="11" style="stroke:#A80036;stroke-width:1.0;"/><path d="M577.8594,404.7813 Q578.6563,404.7813 579.2188,404.5938 Q579.7969,404.3906 580.0313,404.1719 Q580.2813,403.9375 580.5156,403.75 Q580.7656,403.5469 580.9844,403.5469 Q581.3281,403.5469 581.5781,403.8125 Q581.8438,404.0625 581.8438,404.3906 Q581.8438,405.125 580.6719,405.8125 Q579.5156,406.4844 577.8125,406.4844 Q575.6563,406.4844 574.2344,405.2188 Q572.8125,403.9531 572.8125,402.0156 L572.8125,400.8906 Q572.8125,398.8594 574.1406,397.4844 Q575.4688,396.0938 577.4375,396.0938 Q578.625,396.0938 579.8438,396.6719 L580.0156,396.75 Q580.3125,396.3438 580.7344,396.3438 Q581.2188,396.3438 581.3906,396.6406 Q581.5781,396.9219 581.5781,397.4688 L581.5781,398.8906 Q581.5781,400.0156 580.7344,400.0156 Q580.4219,400.0156 580.2188,399.8438 Q580.0313,399.6719 579.9844,399.5313 Q579.9531,399.375 579.9063,399.1094 Q579.7969,398.5938 579.2813,398.2813 Q578.7656,397.9688 578.3125,397.8906 Q577.875,397.7969 577.5,397.7969 Q576.2188,397.7969 575.3594,398.6719 Q574.5156,399.5469 574.5156,400.8906 L574.5156,401.9844 Q574.5156,403.2656 575.4219,404.0313 Q576.3281,404.7813 577.8594,404.7813 Z " fill="#000000"/><text fill="#000000" font-family="sans-serif" font-size="12" lengthAdjust="spacing" textLength="37" x="592.5" y="405.8">Animal</text><line style="stroke:#A80036;stroke-width:1.5;" x1="564.5" x2="631.5" y1="417" y2="417"/><line style="stroke:#A80036;stroke-width:1.5;" x1="564.5" x2="631.5" y1="425" y2="425"/><!--MD5=[48161a418f9e77ddd9c620c824d14137]
reverse link OSC20 to PhysicalObject--><path codeLine="21" d="M370,109.02 C370,122.58 370,137.04 370,148.68 " fill="none" id="OSC20-backto-PhysicalObject" style="stroke:#A80036;stroke-width:1.0;"/><polygon fill="none" points="363,109,370,89,377,109,363,109" style="stroke:#A80036;stroke-width:1.0;"/><!--MD5=[40c14eceafbe0e2150a08fff61f9baad]
reverse link PhysicalObject to TrafficParticipant--><path codeLine="22" d="M370,217.02 C370,230.58 370,245.04 370,256.68 " fill="none" id="PhysicalObject-backto-TrafficParticipant" style="stroke:#A80036;stroke-width:1.0;"/><polygon fill="none" points="363,217,370,197,377,217,363,217" style="stroke:#A80036;stroke-width:1.0;"/><!--MD5=[462c45cc0cbd1f1afdf0b06a6d7f5d38]
reverse link TrafficParticipant to Vehicle--><path codeLine="23" d="M289.28,300.83 C238.75,314.52 173.35,335.78 120,365 C110.13,370.41 100.28,377.72 91.81,384.79 " fill="none" id="TrafficParticipant-backto-Vehicle" style="stroke:#A80036;stroke-width:1.0;"/><polygon fill="none" points="287.77,293.99,308.9,295.69,291.32,307.53,287.77,293.99" style="stroke:#A80036;stroke-width:1.0;"/><!--MD5=[01188287cf4a1b81cfaf099d1dbc1441]
reverse link TrafficParticipant to Person--><path codeLine="24" d="M406.91,319.51 C427.7,340.63 453.01,366.35 470.98,384.61 " fill="none" id="TrafficParticipant-backto-Person" style="stroke:#A80036;stroke-width:1.0;"/><polygon fill="none" points="401.78,324.28,392.74,305.11,411.76,314.46,401.78,324.28" style="stroke:#A80036;stroke-width:1.0;"/><!--MD5=[c45b6babd2023bc02cce010f99141d49]
reverse link TrafficParticipant to Animal--><path codeLine="25" d="M446.7,313.15 C478.4,327.28 514.92,345.26 546,365 C555.1,370.78 564.37,377.96 572.52,384.78 " fill="none" id="TrafficParticipant-backto-Animal" style="stroke:#A80036;stroke-width:1.0;"/><polygon fill="none" points="443.72,319.48,428.19,305.07,449.32,306.65,443.72,319.48" style="stroke:#A80036;stroke-width:1.0;"/><!--MD5=[8ed251b5c8a70875868a69c7b5177573]
link TrafficParticipant to IntendedInfrastructure--><path codeLine="28" d="M340.47,305.11 C319.14,321.81 289.69,344.85 264.07,364.9 " fill="none" id="TrafficParticipant-IntendedInfrastructure" style="stroke:#A80036;stroke-width:1.0;"/><!--MD5=[0bae821d424db38bbfd0da8288a4e520]
link TrafficParticipant to dynamicLimits--><path codeLine="29" d="M370,305.11 C370,321.81 370,344.85 370,364.9 " fill="none" id="TrafficParticipant-dynamicLimits" style="stroke:#A80036;stroke-width:1.0;"/><!--MD5=[38cf486f6b7d9c1539c013b9f6f15ea8]
@startuml
package "UML Class Diagram"
{
    abstract OSC20
    interface PhysicalObject

    interface TrafficParticipant   
    entity Vehicle{}

	enum IntendedInfrastructure {
	driving
	sidewalk
	biking
    }

    class dynamicLimits{
        maxSpeed
        maxAcceleration
        maxDeceleration
}

OSC20 <|- - PhysicalObject
PhysicalObject <|- - TrafficParticipant
TrafficParticipant <|- - Vehicle
TrafficParticipant <|- - Person
TrafficParticipant <|- - Animal

'TrafficParticipant
TrafficParticipant - - IntendedInfrastructure
TrafficParticipant - - dynamicLimits
@enduml

@startuml
package "UML Class Diagram"
{
    abstract OSC20
    interface PhysicalObject

    interface TrafficParticipant   
    entity Vehicle{}

	enum IntendedInfrastructure {
	driving
	sidewalk
	biking
    }

    class dynamicLimits{
        maxSpeed
        maxAcceleration
        maxDeceleration
}

OSC20 <|- - PhysicalObject
PhysicalObject <|- - TrafficParticipant
TrafficParticipant <|- - Vehicle
TrafficParticipant <|- - Person
TrafficParticipant <|- - Animal

TrafficParticipant - - IntendedInfrastructure
TrafficParticipant - - dynamicLimits
@enduml

PlantUML version 1.2021.10(Mon Aug 30 13:43:48 GMT 2021)
(GPL source distribution)
Java Runtime: OpenJDK Runtime Environment
JVM: OpenJDK 64-Bit Server VM
Default Encoding: UTF-8
Language: en
Country: US
--></g></svg>