<?xml version="1.0" encoding="UTF-8" standalone="no"?><svg xmlns="http://www.w3.org/2000/svg" xmlns:xlink="http://www.w3.org/1999/xlink" contentScriptType="application/ecmascript" contentStyleType="text/css" height="362px" preserveAspectRatio="none" style="width:766px;height:362px;background:#FFFFFF;" version="1.1" viewBox="0 0 766 362" width="766px" zoomAndPan="magnify"><defs><filter height="300%" id="f1ay1h6ps4gz1i" width="300%" x="-1" y="-1"><feGaussianBlur result="blurOut" stdDeviation="2.0"/><feColorMatrix in="blurOut" result="blurOut2" type="matrix" values="0 0 0 0 0 0 0 0 0 0 0 0 0 0 0 0 0 0 .4 0"/><feOffset dx="4.0" dy="4.0" in="blurOut2" result="blurOut3"/><feBlend in="SourceGraphic" in2="blurOut3" mode="normal"/></filter></defs><g><rect fill="#FEFECE" filter="url(#f1ay1h6ps4gz1i)" height="36.7999" rx="12.5" ry="12.5" style="stroke:#A80036;stroke-width:1.5;" width="227" x="10" y="105.1999"/><text fill="#000000" font-family="sans-serif" font-size="14" font-weight="bold" lengthAdjust="spacing" textLength="207" x="20" y="129.1998">ASAM Project Guide Structure</text><rect fill="#FEFECE" filter="url(#f1ay1h6ps4gz1i)" height="36.7999" rx="12.5" ry="12.5" style="stroke:#A80036;stroke-width:1.5;" width="126" x="287" y="105.1999"/><text fill="#000000" font-family="sans-serif" font-size="14" font-weight="bold" lengthAdjust="spacing" textLength="106" x="297" y="129.1998">Tools Overview</text><rect fill="#FEFECE" filter="url(#f1ay1h6ps4gz1i)" height="36.7999" rx="12.5" ry="12.5" style="stroke:#A80036;stroke-width:1.5;" width="115" x="463" y="105.1999"/><text fill="#000000" font-family="sans-serif" font-size="14" lengthAdjust="spacing" textLength="95" x="473" y="129.1998">Tool main page</text><rect fill="#FEFECE" filter="url(#f1ay1h6ps4gz1i)" height="36.7999" rx="12.5" ry="12.5" style="stroke:#A80036;stroke-width:1.5;" width="56" x="628" y="20"/><text fill="#000000" font-family="sans-serif" font-size="14" lengthAdjust="spacing" textLength="36" x="638" y="43.9999">Setup</text><path d="M578,123.5999 L588,123.5999 C603,123.5999 603,38.4 618,38.4 L628,38.4 " fill="none" style="stroke:#A80036;stroke-width:1.0;"/><rect fill="#FEFECE" filter="url(#f1ay1h6ps4gz1i)" height="36.7999" rx="12.5" ry="12.5" style="stroke:#A80036;stroke-width:1.5;" width="64" x="628" y="76.7999"/><text fill="#000000" font-family="sans-serif" font-size="14" lengthAdjust="spacing" textLength="44" x="638" y="100.7999">Guides</text><path d="M578,123.5999 L588,123.5999 C603,123.5999 603,95.1999 618,95.1999 L628,95.1999 " fill="none" style="stroke:#A80036;stroke-width:1.0;"/><rect fill="#FEFECE" filter="url(#f1ay1h6ps4gz1i)" height="36.7999" rx="12.5" ry="12.5" style="stroke:#A80036;stroke-width:1.5;" width="119" x="628" y="133.5999"/><text fill="#000000" font-family="sans-serif" font-size="14" lengthAdjust="spacing" textLength="99" x="638" y="157.5998">Troubleshooting</text><path d="M578,123.5999 L588,123.5999 C603,123.5999 603,151.9998 618,151.9998 L628,151.9998 " fill="none" style="stroke:#A80036;stroke-width:1.0;"/><rect fill="#FEFECE" filter="url(#f1ay1h6ps4gz1i)" height="36.7999" rx="12.5" ry="12.5" style="stroke:#A80036;stroke-width:1.5;" width="108" x="628" y="190.3998"/><text fill="#000000" font-family="sans-serif" font-size="14" lengthAdjust="spacing" textLength="88" x="638" y="214.3997">Best Practices</text><path d="M578,123.5999 L588,123.5999 C603,123.5999 603,208.7997 618,208.7997 L628,208.7997 " fill="none" style="stroke:#A80036;stroke-width:1.0;"/><path d="M413,123.5999 L423,123.5999 C438,123.5999 438,123.5999 453,123.5999 L463,123.5999 " fill="none" style="stroke:#A80036;stroke-width:1.0;"/><path d="M237,123.5999 L247,123.5999 C262,123.5999 262,123.5999 277,123.5999 L287,123.5999 " fill="none" style="stroke:#A80036;stroke-width:1.0;"/><rect fill="#DDDDDD" height="95.9996" rx="7.5" ry="7.5" style="stroke:#000000;stroke-width:1.0;" width="267" x="421" y="245.1997"/><ellipse cx="432.5" cy="260.4996" fill="#000000" rx="2.5" ry="2.5" style="stroke:#000000;stroke-width:0.0;"/><text fill="#000000" font-family="sans-serif" font-size="14" font-weight="bold" lengthAdjust="spacing" textLength="210" x="440" y="265.1996">Page in navigation bar (linked)</text><ellipse cx="432.5" cy="277.2996" fill="#000000" rx="2.5" ry="2.5" style="stroke:#000000;stroke-width:0.0;"/><text fill="#000000" font-family="sans-serif" font-size="14" font-weight="bold" lengthAdjust="spacing" text-decoration="underline" textLength="242" x="440" y="281.9996">Header in navigation bar (unlinked)</text><ellipse cx="432.5" cy="294.0995" fill="#000000" rx="2.5" ry="2.5" style="stroke:#000000;stroke-width:0.0;"/><text fill="#000000" font-family="sans-serif" font-size="14" lengthAdjust="spacing" textLength="223" x="440" y="298.7995">Page without entry in navigation bar</text><ellipse cx="432.5" cy="310.8994" fill="#000000" rx="2.5" ry="2.5" style="stroke:#000000;stroke-width:0.0;"/><text fill="#000000" font-family="sans-serif" font-size="14" lengthAdjust="spacing" text-decoration="underline" textLength="92" x="440" y="315.5994">descriptive text</text><text fill="#000000" font-family="sans-serif" font-size="14" lengthAdjust="spacing" textLength="0" x="431" y="332.3994"/><!--MD5=[cb4213e943217f6b5d762572828a6fef]
@startmindmap
+ **ASAM Project Guide Structure**
++ **Tools Overview**

+++ Tool main page

++++ Setup

++++ Guides

++++ Troubleshooting

++++ Best Practices
legend right
    * **Page in navigation bar (linked)**
    * __**Header in navigation bar (unlinked)**__
    * Page without entry in navigation bar
    * __descriptive text__

end legend

@endmindmap

PlantUML version 1.2021.10(Mon Aug 30 13:43:48 GMT 2021)
(GPL source distribution)
Java Runtime: OpenJDK Runtime Environment
JVM: OpenJDK 64-Bit Server VM
Default Encoding: UTF-8
Language: en
Country: US
--></g></svg>