<?xml version="1.0" encoding="UTF-8" standalone="no"?><svg xmlns="http://www.w3.org/2000/svg" xmlns:xlink="http://www.w3.org/1999/xlink" contentScriptType="application/ecmascript" contentStyleType="text/css" height="589px" preserveAspectRatio="none" style="width:1217px;height:589px;background:#FFFFFF;" version="1.1" viewBox="0 0 1217 589" width="1217px" zoomAndPan="magnify"><defs><filter height="300%" id="f14y205omw1iap" width="300%" x="-1" y="-1"><feGaussianBlur result="blurOut" stdDeviation="2.0"/><feColorMatrix in="blurOut" result="blurOut2" type="matrix" values="0 0 0 0 0 0 0 0 0 0 0 0 0 0 0 0 0 0 .4 0"/><feOffset dx="4.0" dy="4.0" in="blurOut2" result="blurOut3"/><feBlend in="SourceGraphic" in2="blurOut3" mode="normal"/></filter></defs><g><rect fill="#FEFECE" filter="url(#f14y205omw1iap)" height="36.7999" rx="12.5" ry="12.5" style="stroke:#A80036;stroke-width:1.5;" width="227" x="10" y="218.7997"/><text fill="#000000" font-family="sans-serif" font-size="14" font-weight="bold" lengthAdjust="spacing" textLength="207" x="20" y="242.7997">ASAM Project Guide Structure</text><rect fill="#FEFECE" filter="url(#f14y205omw1iap)" height="36.7999" rx="12.5" ry="12.5" style="stroke:#A80036;stroke-width:1.5;" width="62" x="287" y="20"/><text fill="#000000" font-family="sans-serif" font-size="14" font-weight="bold" lengthAdjust="spacing" text-decoration="underline" textLength="42" x="297" y="43.9999">HOME</text><text fill="#000000" font-family="sans-serif" font-size="14" lengthAdjust="spacing" textLength="286" x="402" y="43.9999">this is the default page; links to all major areas</text><path d="M349,38.4 L359,38.4 C374,38.4 374,38.4 389,38.4 L399,38.4 " fill="none" style="stroke:#A80036;stroke-width:1.0;"/><path d="M237,237.1997 L247,237.1997 C262,237.1997 262,38.4 277,38.4 L287,38.4 " fill="none" style="stroke:#A80036;stroke-width:1.0;"/><rect fill="#FEFECE" filter="url(#f14y205omw1iap)" height="36.7999" rx="12.5" ry="12.5" style="stroke:#A80036;stroke-width:1.5;" width="149" x="287" y="76.7999"/><text fill="#000000" font-family="sans-serif" font-size="14" font-weight="bold" lengthAdjust="spacing" textLength="85" x="297" y="100.7999">Introduction</text><text fill="#000000" font-family="sans-serif" font-size="14" lengthAdjust="spacing" textLength="40" x="386" y="100.7999">(main)</text><text fill="#000000" font-family="sans-serif" font-size="14" lengthAdjust="spacing" textLength="362" x="489" y="100.7999">landing page for introductory content and general overview</text><path d="M436,95.1999 L446,95.1999 C461,95.1999 461,95.1999 476,95.1999 L486,95.1999 " fill="none" style="stroke:#A80036;stroke-width:1.0;"/><path d="M237,237.1997 L247,237.1997 C262,237.1997 262,95.1999 277,95.1999 L287,95.1999 " fill="none" style="stroke:#A80036;stroke-width:1.0;"/><rect fill="#FEFECE" filter="url(#f14y205omw1iap)" height="36.7999" rx="12.5" ry="12.5" style="stroke:#A80036;stroke-width:1.5;" width="163" x="287" y="133.5999"/><text fill="#000000" font-family="sans-serif" font-size="14" font-weight="bold" lengthAdjust="spacing" textLength="143" x="297" y="157.5998">How To Get Involved</text><text fill="#000000" font-family="sans-serif" font-size="14" lengthAdjust="spacing" textLength="374" x="503" y="157.5998">contains information on how to get involved in ASAM projects</text><path d="M450,151.9998 L460,151.9998 C475,151.9998 475,151.9998 490,151.9998 L500,151.9998 " fill="none" style="stroke:#A80036;stroke-width:1.0;"/><path d="M237,237.1997 L247,237.1997 C262,237.1997 262,151.9998 277,151.9998 L287,151.9998 " fill="none" style="stroke:#A80036;stroke-width:1.0;"/><rect fill="#FEFECE" filter="url(#f14y205omw1iap)" height="36.7999" rx="12.5" ry="12.5" style="stroke:#A80036;stroke-width:1.5;" width="199" x="287" y="190.3998"/><text fill="#000000" font-family="sans-serif" font-size="14" font-weight="bold" lengthAdjust="spacing" textLength="179" x="297" y="214.3997">Role-Specific Instructions</text><text fill="#000000" font-family="sans-serif" font-size="14" lengthAdjust="spacing" textLength="395" x="539" y="214.3997">this page contains the role definitions and links to role definitions</text><path d="M486,208.7997 L496,208.7997 C511,208.7997 511,208.7997 526,208.7997 L536,208.7997 " fill="none" style="stroke:#A80036;stroke-width:1.0;"/><path d="M237,237.1997 L247,237.1997 C262,237.1997 262,208.7997 277,208.7997 L287,208.7997 " fill="none" style="stroke:#A80036;stroke-width:1.0;"/><rect fill="#FEFECE" filter="url(#f14y205omw1iap)" height="36.7999" rx="12.5" ry="12.5" style="stroke:#A80036;stroke-width:1.5;" width="234" x="287" y="247.1997"/><text fill="#000000" font-family="sans-serif" font-size="14" font-weight="bold" lengthAdjust="spacing" textLength="214" x="297" y="271.1996">ASAM Standardization Process</text><text fill="#000000" font-family="sans-serif" font-size="14" lengthAdjust="spacing" textLength="420" x="574" y="271.1996">contains all important processes used by ASAM and in their projects</text><path d="M521,265.5997 L531,265.5997 C546,265.5997 546,265.5997 561,265.5997 L571,265.5997 " fill="none" style="stroke:#A80036;stroke-width:1.0;"/><path d="M237,237.1997 L247,237.1997 C262,237.1997 262,265.5997 277,265.5997 L287,265.5997 " fill="none" style="stroke:#A80036;stroke-width:1.0;"/><rect fill="#FEFECE" filter="url(#f14y205omw1iap)" height="36.7999" rx="12.5" ry="12.5" style="stroke:#A80036;stroke-width:1.5;" width="113" x="287" y="303.9996"/><text fill="#000000" font-family="sans-serif" font-size="14" font-weight="bold" lengthAdjust="spacing" textLength="93" x="297" y="327.9996">Compendium</text><text fill="#000000" font-family="sans-serif" font-size="14" lengthAdjust="spacing" textLength="752" x="453" y="318.5996">this contains all definitions in their original file. pages may include (parts) of them where needed, e.g. for roles and tutorials</text><path d="M400,322.3996 L410,322.3996 C425,322.3996 425,312.9996 440,312.9996 L450,312.9996 " fill="none" style="stroke:#A80036;stroke-width:1.0;"/><text fill="#000000" font-family="sans-serif" font-size="14" lengthAdjust="spacing" textLength="254" x="453" y="337.3995">TBD: Join with ASAM Project Handbook?</text><path d="M400,322.3996 L410,322.3996 C425,322.3996 425,331.7996 440,331.7996 L450,331.7996 " fill="none" style="stroke:#A80036;stroke-width:1.0;"/><path d="M237,237.1997 L247,237.1997 C262,237.1997 262,322.3996 277,322.3996 L287,322.3996 " fill="none" style="stroke:#A80036;stroke-width:1.0;"/><rect fill="#FEFECE" filter="url(#f14y205omw1iap)" height="36.7999" rx="12.5" ry="12.5" style="stroke:#A80036;stroke-width:1.5;" width="126" x="287" y="360.7996"/><text fill="#000000" font-family="sans-serif" font-size="14" font-weight="bold" lengthAdjust="spacing" textLength="106" x="297" y="384.7995">Tools Overview</text><text fill="#000000" font-family="sans-serif" font-size="14" lengthAdjust="spacing" textLength="230" x="466" y="384.7995">contains all information in full on tools</text><path d="M413,379.1995 L423,379.1995 C438,379.1995 438,379.1995 453,379.1995 L463,379.1995 " fill="none" style="stroke:#A80036;stroke-width:1.0;"/><path d="M237,237.1997 L247,237.1997 C262,237.1997 262,379.1995 277,379.1995 L287,379.1995 " fill="none" style="stroke:#A80036;stroke-width:1.0;"/><rect fill="#FEFECE" filter="url(#f14y205omw1iap)" height="36.7999" rx="12.5" ry="12.5" style="stroke:#A80036;stroke-width:1.5;" width="227" x="287" y="417.5995"/><text fill="#000000" font-family="sans-serif" font-size="14" font-weight="bold" lengthAdjust="spacing" textLength="207" x="297" y="441.5994">Working On The Project Guide</text><text fill="#000000" font-family="sans-serif" font-size="14" lengthAdjust="spacing" textLength="496" x="567" y="441.5994">this contains tutorials, definitions, and guidelines for working on this specification</text><path d="M514,435.9995 L524,435.9995 C539,435.9995 539,435.9995 554,435.9995 L564,435.9995 " fill="none" style="stroke:#A80036;stroke-width:1.0;"/><path d="M237,237.1997 L247,237.1997 C262,237.1997 262,435.9995 277,435.9995 L287,435.9995 " fill="none" style="stroke:#A80036;stroke-width:1.0;"/><rect fill="#DDDDDD" height="95.9996" rx="7.5" ry="7.5" style="stroke:#000000;stroke-width:1.0;" width="267" x="879" y="472.3994"/><ellipse cx="890.5" cy="487.6993" fill="#000000" rx="2.5" ry="2.5" style="stroke:#000000;stroke-width:0.0;"/><text fill="#000000" font-family="sans-serif" font-size="14" font-weight="bold" lengthAdjust="spacing" textLength="210" x="898" y="492.3994">Page in navigation bar (linked)</text><ellipse cx="890.5" cy="504.4993" fill="#000000" rx="2.5" ry="2.5" style="stroke:#000000;stroke-width:0.0;"/><text fill="#000000" font-family="sans-serif" font-size="14" font-weight="bold" lengthAdjust="spacing" text-decoration="underline" textLength="242" x="898" y="509.1993">Header in navigation bar (unlinked)</text><ellipse cx="890.5" cy="521.2992" fill="#000000" rx="2.5" ry="2.5" style="stroke:#000000;stroke-width:0.0;"/><text fill="#000000" font-family="sans-serif" font-size="14" lengthAdjust="spacing" textLength="223" x="898" y="525.9992">Page without entry in navigation bar</text><ellipse cx="890.5" cy="538.0991" fill="#000000" rx="2.5" ry="2.5" style="stroke:#000000;stroke-width:0.0;"/><text fill="#000000" font-family="sans-serif" font-size="14" lengthAdjust="spacing" text-decoration="underline" textLength="92" x="898" y="542.7991">descriptive text</text><text fill="#000000" font-family="sans-serif" font-size="14" lengthAdjust="spacing" textLength="0" x="889" y="559.5991"/><!--MD5=[91bb176203291de3b61bad6bfcf88ae8]
@startmindmap
+ **ASAM Project Guide Structure**
++ **__HOME__**
+++_ this is the default page; links to all major areas

++ **Introduction** (main)
+++_ landing page for introductory content and general overview
++ **How To Get Involved**
+++_ contains information on how to get involved in ASAM projects
++ **Role-Specific Instructions**
+++_ this page contains the role definitions and links to role definitions
++ **ASAM Standardization Process**
+++_ contains all important processes used by ASAM and in their projects
++ **Compendium**
+++_ this contains all definitions in their original file. pages may include (parts) of them where needed, e.g. for roles and tutorials
+++_ TBD: Join with ASAM Project Handbook?
++ **Tools Overview**
+++_ contains all information in full on tools
++ **Working On The Project Guide**
+++_ this contains tutorials, definitions, and guidelines for working on this specification
legend right
    * **Page in navigation bar (linked)**
    * __**Header in navigation bar (unlinked)**__
    * Page without entry in navigation bar
    * __descriptive text__

end legend

@endmindmap

PlantUML version 1.2021.10(Mon Aug 30 13:43:48 GMT 2021)
(GPL source distribution)
Java Runtime: OpenJDK Runtime Environment
JVM: OpenJDK 64-Bit Server VM
Default Encoding: UTF-8
Language: en
Country: US
--></g></svg>