<?xml version="1.0" encoding="UTF-8" standalone="no"?><svg xmlns="http://www.w3.org/2000/svg" xmlns:xlink="http://www.w3.org/1999/xlink" contentScriptType="application/ecmascript" contentStyleType="text/css" height="418px" preserveAspectRatio="none" style="width:982px;height:418px;background:#FFFFFF;" version="1.1" viewBox="0 0 982 418" width="982px" zoomAndPan="magnify"><defs><filter height="300%" id="f1d4p4u1wqkx99" width="300%" x="-1" y="-1"><feGaussianBlur result="blurOut" stdDeviation="2.0"/><feColorMatrix in="blurOut" result="blurOut2" type="matrix" values="0 0 0 0 0 0 0 0 0 0 0 0 0 0 0 0 0 0 .4 0"/><feOffset dx="4.0" dy="4.0" in="blurOut2" result="blurOut3"/><feBlend in="SourceGraphic" in2="blurOut3" mode="normal"/></filter></defs><g><rect fill="#FEFECE" filter="url(#f1d4p4u1wqkx99)" height="36.7999" rx="12.5" ry="12.5" style="stroke:#A80036;stroke-width:1.5;" width="227" x="10" y="133.5999"/><text fill="#000000" font-family="sans-serif" font-size="14" font-weight="bold" lengthAdjust="spacing" textLength="207" x="20" y="157.5998">ASAM Project Guide Structure</text><rect fill="#FEFECE" filter="url(#f1d4p4u1wqkx99)" height="36.7999" rx="12.5" ry="12.5" style="stroke:#A80036;stroke-width:1.5;" width="199" x="287" y="133.5999"/><text fill="#000000" font-family="sans-serif" font-size="14" font-weight="bold" lengthAdjust="spacing" textLength="179" x="297" y="157.5998">Role-Specific Instructions</text><rect fill="#FEFECE" filter="url(#f1d4p4u1wqkx99)" height="36.7999" rx="12.5" ry="12.5" style="stroke:#A80036;stroke-width:1.5;" width="169" x="536" y="133.5999"/><text fill="#000000" font-family="sans-serif" font-size="14" font-weight="bold" lengthAdjust="spacing" textLength="149" x="546" y="157.5998">Role-specific Content</text><rect fill="#FEFECE" filter="url(#f1d4p4u1wqkx99)" height="36.7999" rx="12.5" ry="12.5" style="stroke:#A80036;stroke-width:1.5;" width="208" x="755" y="20"/><text fill="#000000" font-family="sans-serif" font-size="14" font-weight="bold" lengthAdjust="spacing" textLength="188" x="765" y="43.9999">Tasks And Responsibilities</text><path d="M705,151.9998 L715,151.9998 C730,151.9998 730,38.4 745,38.4 L755,38.4 " fill="none" style="stroke:#A80036;stroke-width:1.0;"/><rect fill="#FEFECE" filter="url(#f1d4p4u1wqkx99)" height="36.7999" rx="12.5" ry="12.5" style="stroke:#A80036;stroke-width:1.5;" width="138" x="755" y="76.7999"/><text fill="#000000" font-family="sans-serif" font-size="14" font-weight="bold" lengthAdjust="spacing" textLength="118" x="765" y="100.7999">Suggested Tools</text><path d="M705,151.9998 L715,151.9998 C730,151.9998 730,95.1999 745,95.1999 L755,95.1999 " fill="none" style="stroke:#A80036;stroke-width:1.0;"/><rect fill="#FEFECE" filter="url(#f1d4p4u1wqkx99)" height="36.7999" rx="12.5" ry="12.5" style="stroke:#A80036;stroke-width:1.5;" width="69" x="755" y="133.5999"/><text fill="#000000" font-family="sans-serif" font-size="14" font-weight="bold" lengthAdjust="spacing" textLength="49" x="765" y="157.5998">Guides</text><path d="M705,151.9998 L715,151.9998 C730,151.9998 730,151.9998 745,151.9998 L755,151.9998 " fill="none" style="stroke:#A80036;stroke-width:1.0;"/><rect fill="#FEFECE" filter="url(#f1d4p4u1wqkx99)" height="36.7999" rx="12.5" ry="12.5" style="stroke:#A80036;stroke-width:1.5;" width="118" x="755" y="190.3998"/><text fill="#000000" font-family="sans-serif" font-size="14" font-weight="bold" lengthAdjust="spacing" textLength="98" x="765" y="214.3997">Best Practices</text><path d="M705,151.9998 L715,151.9998 C730,151.9998 730,208.7997 745,208.7997 L755,208.7997 " fill="none" style="stroke:#A80036;stroke-width:1.0;"/><rect fill="#FEFECE" filter="url(#f1d4p4u1wqkx99)" height="36.7999" rx="12.5" ry="12.5" style="stroke:#A80036;stroke-width:1.5;" width="199" x="755" y="247.1997"/><text fill="#000000" font-family="sans-serif" font-size="14" font-weight="bold" lengthAdjust="spacing" textLength="179" x="765" y="271.1996">General Information Links</text><path d="M705,151.9998 L715,151.9998 C730,151.9998 730,265.5997 745,265.5997 L755,265.5997 " fill="none" style="stroke:#A80036;stroke-width:1.0;"/><path d="M486,151.9998 L496,151.9998 C511,151.9998 511,151.9998 526,151.9998 L536,151.9998 " fill="none" style="stroke:#A80036;stroke-width:1.0;"/><path d="M237,151.9998 L247,151.9998 C262,151.9998 262,151.9998 277,151.9998 L287,151.9998 " fill="none" style="stroke:#A80036;stroke-width:1.0;"/><rect fill="#DDDDDD" height="95.9996" rx="7.5" ry="7.5" style="stroke:#000000;stroke-width:1.0;" width="267" x="637" y="301.9996"/><ellipse cx="648.5" cy="317.2996" fill="#000000" rx="2.5" ry="2.5" style="stroke:#000000;stroke-width:0.0;"/><text fill="#000000" font-family="sans-serif" font-size="14" font-weight="bold" lengthAdjust="spacing" textLength="210" x="656" y="321.9996">Page in navigation bar (linked)</text><ellipse cx="648.5" cy="334.0995" fill="#000000" rx="2.5" ry="2.5" style="stroke:#000000;stroke-width:0.0;"/><text fill="#000000" font-family="sans-serif" font-size="14" font-weight="bold" lengthAdjust="spacing" text-decoration="underline" textLength="242" x="656" y="338.7995">Header in navigation bar (unlinked)</text><ellipse cx="648.5" cy="350.8994" fill="#000000" rx="2.5" ry="2.5" style="stroke:#000000;stroke-width:0.0;"/><text fill="#000000" font-family="sans-serif" font-size="14" lengthAdjust="spacing" textLength="223" x="656" y="355.5994">Page without entry in navigation bar</text><ellipse cx="648.5" cy="367.6993" fill="#000000" rx="2.5" ry="2.5" style="stroke:#000000;stroke-width:0.0;"/><text fill="#000000" font-family="sans-serif" font-size="14" lengthAdjust="spacing" text-decoration="underline" textLength="92" x="656" y="372.3994">descriptive text</text><text fill="#000000" font-family="sans-serif" font-size="14" lengthAdjust="spacing" textLength="0" x="647" y="389.1993"/><!--MD5=[fed8c8d4424636911c1f50983840d7c8]
@startmindmap
+ **ASAM Project Guide Structure**
++ **Role-Specific Instructions**

+++ **Role-specific Content**

++++ **Tasks And Responsibilities**

++++ **Suggested Tools**

++++ **Guides**

++++ **Best Practices**

++++ **General Information Links**
legend right
    * **Page in navigation bar (linked)**
    * __**Header in navigation bar (unlinked)**__
    * Page without entry in navigation bar
    * __descriptive text__

end legend

@endmindmap

PlantUML version 1.2021.10(Mon Aug 30 13:43:48 GMT 2021)
(GPL source distribution)
Java Runtime: OpenJDK Runtime Environment
JVM: OpenJDK 64-Bit Server VM
Default Encoding: UTF-8
Language: en
Country: US
--></g></svg>