<?xml version="1.0" encoding="UTF-8" standalone="no"?><svg xmlns="http://www.w3.org/2000/svg" xmlns:xlink="http://www.w3.org/1999/xlink" contentScriptType="application/ecmascript" contentStyleType="text/css" height="646px" preserveAspectRatio="none" style="width:924px;height:646px;background:#FFFFFF;" version="1.1" viewBox="0 0 924 646" width="924px" zoomAndPan="magnify"><defs><filter height="300%" id="fwagqxb23j3iv" width="300%" x="-1" y="-1"><feGaussianBlur result="blurOut" stdDeviation="2.0"/><feColorMatrix in="blurOut" result="blurOut2" type="matrix" values="0 0 0 0 0 0 0 0 0 0 0 0 0 0 0 0 0 0 .4 0"/><feOffset dx="4.0" dy="4.0" in="blurOut2" result="blurOut3"/><feBlend in="SourceGraphic" in2="blurOut3" mode="normal"/></filter></defs><g><rect fill="#FEFECE" filter="url(#fwagqxb23j3iv)" height="36.7999" rx="12.5" ry="12.5" style="stroke:#A80036;stroke-width:1.5;" width="227" x="10" y="247.1997"/><text fill="#000000" font-family="sans-serif" font-size="14" font-weight="bold" lengthAdjust="spacing" textLength="207" x="20" y="271.1996">ASAM Project Guide Structure</text><rect fill="#FEFECE" filter="url(#fwagqxb23j3iv)" height="36.7999" rx="12.5" ry="12.5" style="stroke:#A80036;stroke-width:1.5;" width="149" x="287" y="247.1997"/><text fill="#000000" font-family="sans-serif" font-size="14" font-weight="bold" lengthAdjust="spacing" textLength="85" x="297" y="271.1996">Introduction</text><text fill="#000000" font-family="sans-serif" font-size="14" lengthAdjust="spacing" textLength="40" x="386" y="271.1996">(main)</text><rect fill="#FEFECE" filter="url(#fwagqxb23j3iv)" height="36.7999" rx="12.5" ry="12.5" style="stroke:#A80036;stroke-width:1.5;" width="94" x="486" y="161.9998"/><text fill="#000000" font-family="sans-serif" font-size="14" font-weight="bold" lengthAdjust="spacing" textLength="74" x="496" y="185.9998">New Here?</text><rect fill="#FEFECE" filter="url(#fwagqxb23j3iv)" height="36.7999" rx="12.5" ry="12.5" style="stroke:#A80036;stroke-width:1.5;" width="143" x="630" y="20"/><text fill="#000000" font-family="sans-serif" font-size="14" font-weight="bold" lengthAdjust="spacing" textLength="123" x="640" y="43.9999">How ASAM Works</text><path d="M580,180.3998 L590,180.3998 C605,180.3998 605,38.4 620,38.4 L630,38.4 " fill="none" style="stroke:#A80036;stroke-width:1.0;"/><rect fill="#FEFECE" filter="url(#fwagqxb23j3iv)" height="36.7999" rx="12.5" ry="12.5" style="stroke:#A80036;stroke-width:1.5;" width="275" x="630" y="76.7999"/><text fill="#000000" font-family="sans-serif" font-size="14" font-weight="bold" lengthAdjust="spacing" textLength="255" x="640" y="100.7999">Processes And Workflows - Overview</text><path d="M580,180.3998 L590,180.3998 C605,180.3998 605,95.1999 620,95.1999 L630,95.1999 " fill="none" style="stroke:#A80036;stroke-width:1.0;"/><rect fill="#FEFECE" filter="url(#fwagqxb23j3iv)" height="36.7999" rx="12.5" ry="12.5" style="stroke:#A80036;stroke-width:1.5;" width="181" x="630" y="133.5999"/><text fill="#000000" font-family="sans-serif" font-size="14" font-weight="bold" lengthAdjust="spacing" textLength="161" x="640" y="157.5998">ASAM Roles - Overview</text><path d="M580,180.3998 L590,180.3998 C605,180.3998 605,151.9998 620,151.9998 L630,151.9998 " fill="none" style="stroke:#A80036;stroke-width:1.0;"/><rect fill="#FEFECE" filter="url(#fwagqxb23j3iv)" height="36.7999" rx="12.5" ry="12.5" style="stroke:#A80036;stroke-width:1.5;" width="202" x="630" y="190.3998"/><text fill="#000000" font-family="sans-serif" font-size="14" font-weight="bold" lengthAdjust="spacing" textLength="182" x="640" y="214.3997">Standard Tools - Overview</text><path d="M580,180.3998 L590,180.3998 C605,180.3998 605,208.7997 620,208.7997 L630,208.7997 " fill="none" style="stroke:#A80036;stroke-width:1.0;"/><rect fill="#FEFECE" filter="url(#fwagqxb23j3iv)" height="36.7999" rx="12.5" ry="12.5" style="stroke:#A80036;stroke-width:1.5;" width="198" x="630" y="247.1997"/><text fill="#000000" font-family="sans-serif" font-size="14" font-weight="bold" lengthAdjust="spacing" textLength="178" x="640" y="271.1996">ASAM Projects - Overview</text><path d="M580,180.3998 L590,180.3998 C605,180.3998 605,265.5997 620,265.5997 L630,265.5997 " fill="none" style="stroke:#A80036;stroke-width:1.0;"/><rect fill="#FEFECE" filter="url(#fwagqxb23j3iv)" height="36.7999" rx="12.5" ry="12.5" style="stroke:#A80036;stroke-width:1.5;" width="128" x="630" y="303.9996"/><text fill="#000000" font-family="sans-serif" font-size="14" font-weight="bold" lengthAdjust="spacing" textLength="108" x="640" y="327.9996">ASAM Contacts</text><path d="M580,180.3998 L590,180.3998 C605,180.3998 605,322.3996 620,322.3996 L630,322.3996 " fill="none" style="stroke:#A80036;stroke-width:1.0;"/><path d="M436,265.5997 L446,265.5997 C461,265.5997 461,180.3998 476,180.3998 L486,180.3998 " fill="none" style="stroke:#A80036;stroke-width:1.0;"/><rect fill="#FEFECE" filter="url(#fwagqxb23j3iv)" height="36.7999" rx="12.5" ry="12.5" style="stroke:#A80036;stroke-width:1.5;" width="140" x="486" y="417.5995"/><text fill="#000000" font-family="sans-serif" font-size="14" font-weight="bold" lengthAdjust="spacing" textLength="120" x="496" y="441.5994">About This Guide</text><rect fill="#FEFECE" filter="url(#fwagqxb23j3iv)" height="36.7999" rx="12.5" ry="12.5" style="stroke:#A80036;stroke-width:1.5;" width="181" x="676" y="360.7996"/><text fill="#000000" font-family="sans-serif" font-size="14" font-weight="bold" lengthAdjust="spacing" textLength="161" x="686" y="384.7995">Intentions And Content</text><path d="M626,435.9995 L636,435.9995 C651,435.9995 651,379.1995 666,379.1995 L676,379.1995 " fill="none" style="stroke:#A80036;stroke-width:1.0;"/><rect fill="#FEFECE" filter="url(#fwagqxb23j3iv)" height="36.7999" rx="12.5" ry="12.5" style="stroke:#A80036;stroke-width:1.5;" width="138" x="676" y="417.5995"/><text fill="#000000" font-family="sans-serif" font-size="14" font-weight="bold" lengthAdjust="spacing" textLength="118" x="686" y="441.5994">Using This Guide</text><path d="M626,435.9995 L636,435.9995 C651,435.9995 651,435.9995 666,435.9995 L676,435.9995 " fill="none" style="stroke:#A80036;stroke-width:1.0;"/><rect fill="#FEFECE" filter="url(#fwagqxb23j3iv)" height="36.7999" rx="12.5" ry="12.5" style="stroke:#A80036;stroke-width:1.5;" width="175" x="676" y="474.3994"/><text fill="#000000" font-family="sans-serif" font-size="14" font-weight="bold" lengthAdjust="spacing" textLength="155" x="686" y="498.3994">Working On The Guide</text><path d="M626,435.9995 L636,435.9995 C651,435.9995 651,492.7994 666,492.7994 L676,492.7994 " fill="none" style="stroke:#A80036;stroke-width:1.0;"/><path d="M436,265.5997 L446,265.5997 C461,265.5997 461,435.9995 476,435.9995 L486,435.9995 " fill="none" style="stroke:#A80036;stroke-width:1.0;"/><path d="M237,265.5997 L247,265.5997 C262,265.5997 262,265.5997 277,265.5997 L287,265.5997 " fill="none" style="stroke:#A80036;stroke-width:1.0;"/><rect fill="#DDDDDD" height="95.9996" rx="7.5" ry="7.5" style="stroke:#000000;stroke-width:1.0;" width="267" x="579" y="529.1993"/><ellipse cx="590.5" cy="544.4993" fill="#000000" rx="2.5" ry="2.5" style="stroke:#000000;stroke-width:0.0;"/><text fill="#000000" font-family="sans-serif" font-size="14" font-weight="bold" lengthAdjust="spacing" textLength="210" x="598" y="549.1993">Page in navigation bar (linked)</text><ellipse cx="590.5" cy="561.2992" fill="#000000" rx="2.5" ry="2.5" style="stroke:#000000;stroke-width:0.0;"/><text fill="#000000" font-family="sans-serif" font-size="14" font-weight="bold" lengthAdjust="spacing" text-decoration="underline" textLength="242" x="598" y="565.9992">Header in navigation bar (unlinked)</text><ellipse cx="590.5" cy="578.0991" fill="#000000" rx="2.5" ry="2.5" style="stroke:#000000;stroke-width:0.0;"/><text fill="#000000" font-family="sans-serif" font-size="14" lengthAdjust="spacing" textLength="223" x="598" y="582.7991">Page without entry in navigation bar</text><ellipse cx="590.5" cy="594.899" fill="#000000" rx="2.5" ry="2.5" style="stroke:#000000;stroke-width:0.0;"/><text fill="#000000" font-family="sans-serif" font-size="14" lengthAdjust="spacing" text-decoration="underline" textLength="92" x="598" y="599.5991">descriptive text</text><text fill="#000000" font-family="sans-serif" font-size="14" lengthAdjust="spacing" textLength="0" x="589" y="616.399"/><!--MD5=[6444ce20c49a4969fc1e6adc2fcc2f4d]
@startmindmap
+ **ASAM Project Guide Structure**
++ **Introduction** (main)


+++ **New Here?**

++++ **How ASAM Works**

++++ **Processes And Workflows - Overview**

++++ **ASAM Roles - Overview**

++++ **Standard Tools - Overview**

++++ **ASAM Projects - Overview**

++++ **ASAM Contacts**


+++ **About This Guide**

++++ **Intentions And Content**

++++ **Using This Guide**

++++ **Working On The Guide**
legend right
    * **Page in navigation bar (linked)**
    * __**Header in navigation bar (unlinked)**__
    * Page without entry in navigation bar
    * __descriptive text__

end legend

@endmindmap

PlantUML version 1.2021.10(Mon Aug 30 13:43:48 GMT 2021)
(GPL source distribution)
Java Runtime: OpenJDK Runtime Environment
JVM: OpenJDK 64-Bit Server VM
Default Encoding: UTF-8
Language: en
Country: US
--></g></svg>