<?xml version="1.0" encoding="UTF-8" standalone="no"?><svg xmlns="http://www.w3.org/2000/svg" xmlns:xlink="http://www.w3.org/1999/xlink" contentScriptType="application/ecmascript" contentStyleType="text/css" height="816px" preserveAspectRatio="none" style="width:835px;height:816px;background:#FFFFFF;" version="1.1" viewBox="0 0 835 816" width="835px" zoomAndPan="magnify"><defs><filter height="300%" id="f8o69zbny4gzl" width="300%" x="-1" y="-1"><feGaussianBlur result="blurOut" stdDeviation="2.0"/><feColorMatrix in="blurOut" result="blurOut2" type="matrix" values="0 0 0 0 0 0 0 0 0 0 0 0 0 0 0 0 0 0 .4 0"/><feOffset dx="4.0" dy="4.0" in="blurOut2" result="blurOut3"/><feBlend in="SourceGraphic" in2="blurOut3" mode="normal"/></filter></defs><g><rect fill="#FEFECE" filter="url(#f8o69zbny4gzl)" height="36.7999" rx="12.5" ry="12.5" style="stroke:#A80036;stroke-width:1.5;" width="227" x="10" y="332.3996"/><text fill="#000000" font-family="sans-serif" font-size="14" font-weight="bold" lengthAdjust="spacing" textLength="207" x="20" y="356.3995">ASAM Project Guide Structure</text><rect fill="#FEFECE" filter="url(#f8o69zbny4gzl)" height="36.7999" rx="12.5" ry="12.5" style="stroke:#A80036;stroke-width:1.5;" width="234" x="287" y="332.3996"/><text fill="#000000" font-family="sans-serif" font-size="14" font-weight="bold" lengthAdjust="spacing" textLength="214" x="297" y="356.3995">ASAM Standardization Process</text><rect fill="#FEFECE" filter="url(#f8o69zbny4gzl)" height="36.7999" rx="12.5" ry="12.5" style="stroke:#A80036;stroke-width:1.5;" width="245" x="571" y="20"/><text fill="#000000" font-family="sans-serif" font-size="14" font-weight="bold" lengthAdjust="spacing" textLength="225" x="581" y="43.9999">The ASAM Development Process</text><path d="M521,350.7996 L531,350.7996 C546,350.7996 546,38.4 561,38.4 L571,38.4 " fill="none" style="stroke:#A80036;stroke-width:1.0;"/><rect fill="#FEFECE" filter="url(#f8o69zbny4gzl)" height="36.7999" rx="12.5" ry="12.5" style="stroke:#A80036;stroke-width:1.5;" width="150" x="571" y="76.7999"/><text fill="#000000" font-family="sans-serif" font-size="14" font-weight="bold" lengthAdjust="spacing" textLength="130" x="581" y="100.7999">The Ideation Phase</text><path d="M521,350.7996 L531,350.7996 C546,350.7996 546,95.1999 561,95.1999 L571,95.1999 " fill="none" style="stroke:#A80036;stroke-width:1.0;"/><rect fill="#FEFECE" filter="url(#f8o69zbny4gzl)" height="36.7999" rx="12.5" ry="12.5" style="stroke:#A80036;stroke-width:1.5;" width="155" x="571" y="133.5999"/><text fill="#000000" font-family="sans-serif" font-size="14" font-weight="bold" lengthAdjust="spacing" textLength="135" x="581" y="157.5998">The Proposal Phase</text><path d="M521,350.7996 L531,350.7996 C546,350.7996 546,151.9998 561,151.9998 L571,151.9998 " fill="none" style="stroke:#A80036;stroke-width:1.0;"/><rect fill="#FEFECE" filter="url(#f8o69zbny4gzl)" height="36.7999" rx="12.5" ry="12.5" style="stroke:#A80036;stroke-width:1.5;" width="114" x="571" y="190.3998"/><text fill="#000000" font-family="sans-serif" font-size="14" font-weight="bold" lengthAdjust="spacing" textLength="94" x="581" y="214.3997">Project Types</text><path d="M521,350.7996 L531,350.7996 C546,350.7996 546,208.7997 561,208.7997 L571,208.7997 " fill="none" style="stroke:#A80036;stroke-width:1.0;"/><rect fill="#FEFECE" filter="url(#f8o69zbny4gzl)" height="36.7999" rx="12.5" ry="12.5" style="stroke:#A80036;stroke-width:1.5;" width="147" x="571" y="247.1997"/><text fill="#000000" font-family="sans-serif" font-size="14" font-weight="bold" lengthAdjust="spacing" textLength="127" x="581" y="271.1996">Setup Of A Project</text><path d="M521,350.7996 L531,350.7996 C546,350.7996 546,265.5997 561,265.5997 L571,265.5997 " fill="none" style="stroke:#A80036;stroke-width:1.0;"/><rect fill="#FEFECE" filter="url(#f8o69zbny4gzl)" height="36.7999" rx="12.5" ry="12.5" style="stroke:#A80036;stroke-width:1.5;" width="185" x="571" y="303.9996"/><text fill="#000000" font-family="sans-serif" font-size="14" font-weight="bold" lengthAdjust="spacing" textLength="165" x="581" y="327.9996">The Development Phase</text><path d="M521,350.7996 L531,350.7996 C546,350.7996 546,322.3996 561,322.3996 L571,322.3996 " fill="none" style="stroke:#A80036;stroke-width:1.0;"/><rect fill="#FEFECE" filter="url(#f8o69zbny4gzl)" height="36.7999" rx="12.5" ry="12.5" style="stroke:#A80036;stroke-width:1.5;" width="143" x="571" y="360.7996"/><text fill="#000000" font-family="sans-serif" font-size="14" font-weight="bold" lengthAdjust="spacing" textLength="123" x="581" y="384.7995">The Review Phase</text><path d="M521,350.7996 L531,350.7996 C546,350.7996 546,379.1995 561,379.1995 L571,379.1995 " fill="none" style="stroke:#A80036;stroke-width:1.0;"/><rect fill="#FEFECE" filter="url(#f8o69zbny4gzl)" height="36.7999" rx="12.5" ry="12.5" style="stroke:#A80036;stroke-width:1.5;" width="148" x="571" y="417.5995"/><text fill="#000000" font-family="sans-serif" font-size="14" font-weight="bold" lengthAdjust="spacing" textLength="128" x="581" y="441.5994">The Release Phase</text><path d="M521,350.7996 L531,350.7996 C546,350.7996 546,435.9995 561,435.9995 L571,435.9995 " fill="none" style="stroke:#A80036;stroke-width:1.0;"/><rect fill="#FEFECE" filter="url(#f8o69zbny4gzl)" height="36.7999" rx="12.5" ry="12.5" style="stroke:#A80036;stroke-width:1.5;" width="219" x="571" y="474.3994"/><text fill="#000000" font-family="sans-serif" font-size="14" font-weight="bold" lengthAdjust="spacing" textLength="199" x="581" y="498.3994">Working Model (workgroups)</text><path d="M521,350.7996 L531,350.7996 C546,350.7996 546,492.7994 561,492.7994 L571,492.7994 " fill="none" style="stroke:#A80036;stroke-width:1.0;"/><rect fill="#FEFECE" filter="url(#f8o69zbny4gzl)" height="36.7999" rx="12.5" ry="12.5" style="stroke:#A80036;stroke-width:1.5;" width="173" x="571" y="531.1993"/><text fill="#000000" font-family="sans-serif" font-size="14" font-weight="bold" lengthAdjust="spacing" textLength="153" x="581" y="555.1993">Issue-driven Workflow</text><path d="M521,350.7996 L531,350.7996 C546,350.7996 546,549.5993 561,549.5993 L571,549.5993 " fill="none" style="stroke:#A80036;stroke-width:1.0;"/><rect fill="#FEFECE" filter="url(#f8o69zbny4gzl)" height="36.7999" rx="12.5" ry="12.5" style="stroke:#A80036;stroke-width:1.5;" width="173" x="571" y="587.9993"/><text fill="#000000" font-family="sans-serif" font-size="14" font-weight="bold" lengthAdjust="spacing" textLength="153" x="581" y="611.9992">Reviews and Releases</text><path d="M521,350.7996 L531,350.7996 C546,350.7996 546,606.3992 561,606.3992 L571,606.3992 " fill="none" style="stroke:#A80036;stroke-width:1.0;"/><rect fill="#FEFECE" filter="url(#f8o69zbny4gzl)" height="36.7999" rx="12.5" ry="12.5" style="stroke:#A80036;stroke-width:1.5;" width="150" x="571" y="644.7992"/><text fill="#000000" font-family="sans-serif" font-size="14" font-weight="bold" lengthAdjust="spacing" textLength="130" x="581" y="668.7991">ASAM Deliverables</text><path d="M521,350.7996 L531,350.7996 C546,350.7996 546,663.1992 561,663.1992 L571,663.1992 " fill="none" style="stroke:#A80036;stroke-width:1.0;"/><path d="M237,350.7996 L247,350.7996 C262,350.7996 262,350.7996 277,350.7996 L287,350.7996 " fill="none" style="stroke:#A80036;stroke-width:1.0;"/><rect fill="#DDDDDD" height="95.9996" rx="7.5" ry="7.5" style="stroke:#000000;stroke-width:1.0;" width="267" x="490" y="699.5991"/><ellipse cx="501.5" cy="714.899" fill="#000000" rx="2.5" ry="2.5" style="stroke:#000000;stroke-width:0.0;"/><text fill="#000000" font-family="sans-serif" font-size="14" font-weight="bold" lengthAdjust="spacing" textLength="210" x="509" y="719.5991">Page in navigation bar (linked)</text><ellipse cx="501.5" cy="731.699" fill="#000000" rx="2.5" ry="2.5" style="stroke:#000000;stroke-width:0.0;"/><text fill="#000000" font-family="sans-serif" font-size="14" font-weight="bold" lengthAdjust="spacing" text-decoration="underline" textLength="242" x="509" y="736.399">Header in navigation bar (unlinked)</text><ellipse cx="501.5" cy="748.4989" fill="#000000" rx="2.5" ry="2.5" style="stroke:#000000;stroke-width:0.0;"/><text fill="#000000" font-family="sans-serif" font-size="14" lengthAdjust="spacing" textLength="223" x="509" y="753.1989">Page without entry in navigation bar</text><ellipse cx="501.5" cy="765.2988" fill="#000000" rx="2.5" ry="2.5" style="stroke:#000000;stroke-width:0.0;"/><text fill="#000000" font-family="sans-serif" font-size="14" lengthAdjust="spacing" text-decoration="underline" textLength="92" x="509" y="769.9988">descriptive text</text><text fill="#000000" font-family="sans-serif" font-size="14" lengthAdjust="spacing" textLength="0" x="500" y="786.7988"/><!--MD5=[7f67a78d0dcc230bf4b1cae1a2e00daa]
@startmindmap
+ **ASAM Project Guide Structure**
++ **ASAM Standardization Process**
+++ **The ASAM Development Process**

+++ **The Ideation Phase**

+++ **The Proposal Phase**

+++ **Project Types**

+++ **Setup Of A Project**

+++ **The Development Phase**

+++ **The Review Phase**

+++ **The Release Phase**

+++ **Working Model (workgroups)**

+++ **Issue-driven Workflow**

+++ **Reviews and Releases**

+++ **ASAM Deliverables**
legend right
    * **Page in navigation bar (linked)**
    * __**Header in navigation bar (unlinked)**__
    * Page without entry in navigation bar
    * __descriptive text__

end legend

@endmindmap

PlantUML version 1.2021.10(Mon Aug 30 13:43:48 GMT 2021)
(GPL source distribution)
Java Runtime: OpenJDK Runtime Environment
JVM: OpenJDK 64-Bit Server VM
Default Encoding: UTF-8
Language: en
Country: US
--></g></svg>