<?xml version="1.0" encoding="UTF-8" standalone="no"?><svg xmlns="http://www.w3.org/2000/svg" xmlns:xlink="http://www.w3.org/1999/xlink" contentScriptType="application/ecmascript" contentStyleType="text/css" height="532px" preserveAspectRatio="none" style="width:838px;height:532px;background:#FFFFFF;" version="1.1" viewBox="0 0 838 532" width="838px" zoomAndPan="magnify"><defs><filter height="300%" id="f1x8cs9aaqk6m9" width="300%" x="-1" y="-1"><feGaussianBlur result="blurOut" stdDeviation="2.0"/><feColorMatrix in="blurOut" result="blurOut2" type="matrix" values="0 0 0 0 0 0 0 0 0 0 0 0 0 0 0 0 0 0 .4 0"/><feOffset dx="4.0" dy="4.0" in="blurOut2" result="blurOut3"/><feBlend in="SourceGraphic" in2="blurOut3" mode="normal"/></filter></defs><g><rect fill="#FEFECE" filter="url(#f1x8cs9aaqk6m9)" height="36.7999" rx="12.5" ry="12.5" style="stroke:#A80036;stroke-width:1.5;" width="227" x="10" y="190.3998"/><text fill="#000000" font-family="sans-serif" font-size="14" font-weight="bold" lengthAdjust="spacing" textLength="207" x="20" y="214.3997">ASAM Project Guide Structure</text><rect fill="#FEFECE" filter="url(#f1x8cs9aaqk6m9)" height="36.7999" rx="12.5" ry="12.5" style="stroke:#A80036;stroke-width:1.5;" width="163" x="287" y="190.3998"/><text fill="#000000" font-family="sans-serif" font-size="14" font-weight="bold" lengthAdjust="spacing" textLength="143" x="297" y="214.3997">How To Get Involved</text><rect fill="#FEFECE" filter="url(#f1x8cs9aaqk6m9)" height="36.7999" rx="12.5" ry="12.5" style="stroke:#A80036;stroke-width:1.5;" width="163" x="500" y="20"/><text fill="#000000" font-family="sans-serif" font-size="14" font-weight="bold" lengthAdjust="spacing" textLength="143" x="510" y="43.9999">Propose New Project</text><path d="M450,208.7997 L460,208.7997 C475,208.7997 475,38.4 490,38.4 L500,38.4 " fill="none" style="stroke:#A80036;stroke-width:1.0;"/><rect fill="#FEFECE" filter="url(#f1x8cs9aaqk6m9)" height="36.7999" rx="12.5" ry="12.5" style="stroke:#A80036;stroke-width:1.5;" width="292" x="500" y="76.7999"/><text fill="#000000" font-family="sans-serif" font-size="14" font-weight="bold" lengthAdjust="spacing" textLength="272" x="510" y="100.7999">New Standard: Join Proposal Workshop</text><path d="M450,208.7997 L460,208.7997 C475,208.7997 475,95.1999 490,95.1999 L500,95.1999 " fill="none" style="stroke:#A80036;stroke-width:1.0;"/><rect fill="#FEFECE" filter="url(#f1x8cs9aaqk6m9)" height="36.7999" rx="12.5" ry="12.5" style="stroke:#A80036;stroke-width:1.5;" width="319" x="500" y="133.5999"/><text fill="#000000" font-family="sans-serif" font-size="14" font-weight="bold" lengthAdjust="spacing" textLength="299" x="510" y="157.5998">Active Project: Join As Work Group Member</text><path d="M450,208.7997 L460,208.7997 C475,208.7997 475,151.9998 490,151.9998 L500,151.9998 " fill="none" style="stroke:#A80036;stroke-width:1.0;"/><rect fill="#FEFECE" filter="url(#f1x8cs9aaqk6m9)" height="36.7999" rx="12.5" ry="12.5" style="stroke:#A80036;stroke-width:1.5;" width="220" x="500" y="190.3998"/><text fill="#000000" font-family="sans-serif" font-size="14" font-weight="bold" lengthAdjust="spacing" textLength="200" x="510" y="214.3997">Active Project: Lead a Project</text><path d="M450,208.7997 L460,208.7997 C475,208.7997 475,208.7997 490,208.7997 L500,208.7997 " fill="none" style="stroke:#A80036;stroke-width:1.0;"/><rect fill="#FEFECE" filter="url(#f1x8cs9aaqk6m9)" height="36.7999" rx="12.5" ry="12.5" style="stroke:#A80036;stroke-width:1.5;" width="110" x="500" y="247.1997"/><text fill="#000000" font-family="sans-serif" font-size="14" font-weight="bold" lengthAdjust="spacing" textLength="90" x="510" y="271.1996">Join Webinar</text><path d="M450,208.7997 L460,208.7997 C475,208.7997 475,265.5997 490,265.5997 L500,265.5997 " fill="none" style="stroke:#A80036;stroke-width:1.0;"/><rect fill="#FEFECE" filter="url(#f1x8cs9aaqk6m9)" height="36.7999" rx="12.5" ry="12.5" style="stroke:#A80036;stroke-width:1.5;" width="206" x="500" y="303.9996"/><text fill="#000000" font-family="sans-serif" font-size="14" font-weight="bold" lengthAdjust="spacing" textLength="186" x="510" y="327.9996">Become A Service Provider</text><path d="M450,208.7997 L460,208.7997 C475,208.7997 475,322.3996 490,322.3996 L500,322.3996 " fill="none" style="stroke:#A80036;stroke-width:1.0;"/><rect fill="#FEFECE" filter="url(#f1x8cs9aaqk6m9)" height="36.7999" rx="12.5" ry="12.5" style="stroke:#A80036;stroke-width:1.5;" width="136" x="500" y="360.7996"/><text fill="#000000" font-family="sans-serif" font-size="14" font-weight="bold" lengthAdjust="spacing" textLength="116" x="510" y="384.7995">Review Standard</text><path d="M450,208.7997 L460,208.7997 C475,208.7997 475,379.1995 490,379.1995 L500,379.1995 " fill="none" style="stroke:#A80036;stroke-width:1.0;"/><path d="M237,208.7997 L247,208.7997 C262,208.7997 262,208.7997 277,208.7997 L287,208.7997 " fill="none" style="stroke:#A80036;stroke-width:1.0;"/><rect fill="#DDDDDD" height="95.9996" rx="7.5" ry="7.5" style="stroke:#000000;stroke-width:1.0;" width="267" x="493" y="415.5995"/><ellipse cx="504.5" cy="430.8994" fill="#000000" rx="2.5" ry="2.5" style="stroke:#000000;stroke-width:0.0;"/><text fill="#000000" font-family="sans-serif" font-size="14" font-weight="bold" lengthAdjust="spacing" textLength="210" x="512" y="435.5994">Page in navigation bar (linked)</text><ellipse cx="504.5" cy="447.6993" fill="#000000" rx="2.5" ry="2.5" style="stroke:#000000;stroke-width:0.0;"/><text fill="#000000" font-family="sans-serif" font-size="14" font-weight="bold" lengthAdjust="spacing" text-decoration="underline" textLength="242" x="512" y="452.3994">Header in navigation bar (unlinked)</text><ellipse cx="504.5" cy="464.4993" fill="#000000" rx="2.5" ry="2.5" style="stroke:#000000;stroke-width:0.0;"/><text fill="#000000" font-family="sans-serif" font-size="14" lengthAdjust="spacing" textLength="223" x="512" y="469.1993">Page without entry in navigation bar</text><ellipse cx="504.5" cy="481.2992" fill="#000000" rx="2.5" ry="2.5" style="stroke:#000000;stroke-width:0.0;"/><text fill="#000000" font-family="sans-serif" font-size="14" lengthAdjust="spacing" text-decoration="underline" textLength="92" x="512" y="485.9992">descriptive text</text><text fill="#000000" font-family="sans-serif" font-size="14" lengthAdjust="spacing" textLength="0" x="503" y="502.7991"/><!--MD5=[bd69a41cf6a6954cc92377a38635822c]
@startmindmap
+ **ASAM Project Guide Structure**
++ **How To Get Involved**
+++ **Propose New Project**

+++ **New Standard: Join Proposal Workshop**

+++ **Active Project: Join As Work Group Member**

+++ **Active Project: Lead a Project**

+++ **Join Webinar**

+++ **Become A Service Provider**

+++ **Review Standard**
legend right
    * **Page in navigation bar (linked)**
    * __**Header in navigation bar (unlinked)**__
    * Page without entry in navigation bar
    * __descriptive text__

end legend

@endmindmap

PlantUML version 1.2021.10(Mon Aug 30 13:43:48 GMT 2021)
(GPL source distribution)
Java Runtime: OpenJDK Runtime Environment
JVM: OpenJDK 64-Bit Server VM
Default Encoding: UTF-8
Language: en
Country: US
--></g></svg>