<?xml version="1.0" encoding="UTF-8" standalone="no"?><svg xmlns="http://www.w3.org/2000/svg" xmlns:xlink="http://www.w3.org/1999/xlink" contentScriptType="application/ecmascript" contentStyleType="text/css" height="305px" preserveAspectRatio="none" style="width:668px;height:305px;background:#FFFFFF;" version="1.1" viewBox="0 0 668 305" width="668px" zoomAndPan="magnify"><defs><filter height="300%" id="fp657uxajchlo" width="300%" x="-1" y="-1"><feGaussianBlur result="blurOut" stdDeviation="2.0"/><feColorMatrix in="blurOut" result="blurOut2" type="matrix" values="0 0 0 0 0 0 0 0 0 0 0 0 0 0 0 0 0 0 .4 0"/><feOffset dx="4.0" dy="4.0" in="blurOut2" result="blurOut3"/><feBlend in="SourceGraphic" in2="blurOut3" mode="normal"/></filter></defs><g><rect fill="#FEFECE" filter="url(#fp657uxajchlo)" height="36.7999" rx="12.5" ry="12.5" style="stroke:#A80036;stroke-width:1.5;" width="227" x="10" y="76.7999"/><text fill="#000000" font-family="sans-serif" font-size="14" font-weight="bold" lengthAdjust="spacing" textLength="207" x="20" y="100.7999">ASAM Project Guide Structure</text><rect fill="#FEFECE" filter="url(#fp657uxajchlo)" height="36.7999" rx="12.5" ry="12.5" style="stroke:#A80036;stroke-width:1.5;" width="113" x="287" y="76.7999"/><text fill="#000000" font-family="sans-serif" font-size="14" font-weight="bold" lengthAdjust="spacing" textLength="93" x="297" y="100.7999">Compendium</text><rect fill="#FEFECE" filter="url(#fp657uxajchlo)" height="36.7999" rx="12.5" ry="12.5" style="stroke:#A80036;stroke-width:1.5;" width="199" x="450" y="20"/><text fill="#000000" font-family="sans-serif" font-size="14" font-weight="bold" lengthAdjust="spacing" textLength="179" x="460" y="43.9999">Processes And Workflows</text><path d="M400,95.1999 L410,95.1999 C425,95.1999 425,38.4 440,38.4 L450,38.4 " fill="none" style="stroke:#A80036;stroke-width:1.0;"/><rect fill="#FEFECE" filter="url(#fp657uxajchlo)" height="36.7999" rx="12.5" ry="12.5" style="stroke:#A80036;stroke-width:1.5;" width="95" x="450" y="76.7999"/><text fill="#000000" font-family="sans-serif" font-size="14" font-weight="bold" lengthAdjust="spacing" textLength="75" x="460" y="100.7999">Definitions</text><path d="M400,95.1999 L410,95.1999 C425,95.1999 425,95.1999 440,95.1999 L450,95.1999 " fill="none" style="stroke:#A80036;stroke-width:1.0;"/><rect fill="#FEFECE" filter="url(#fp657uxajchlo)" height="36.7999" rx="12.5" ry="12.5" style="stroke:#A80036;stroke-width:1.5;" width="116" x="450" y="133.5999"/><text fill="#000000" font-family="sans-serif" font-size="14" font-weight="bold" lengthAdjust="spacing" textLength="96" x="460" y="157.5998">Abbreviations</text><path d="M400,95.1999 L410,95.1999 C425,95.1999 425,151.9998 440,151.9998 L450,151.9998 " fill="none" style="stroke:#A80036;stroke-width:1.0;"/><path d="M237,95.1999 L247,95.1999 C262,95.1999 262,95.1999 277,95.1999 L287,95.1999 " fill="none" style="stroke:#A80036;stroke-width:1.0;"/><rect fill="#DDDDDD" height="95.9996" rx="7.5" ry="7.5" style="stroke:#000000;stroke-width:1.0;" width="267" x="323" y="188.3998"/><ellipse cx="334.5" cy="203.6997" fill="#000000" rx="2.5" ry="2.5" style="stroke:#000000;stroke-width:0.0;"/><text fill="#000000" font-family="sans-serif" font-size="14" font-weight="bold" lengthAdjust="spacing" textLength="210" x="342" y="208.3997">Page in navigation bar (linked)</text><ellipse cx="334.5" cy="220.4996" fill="#000000" rx="2.5" ry="2.5" style="stroke:#000000;stroke-width:0.0;"/><text fill="#000000" font-family="sans-serif" font-size="14" font-weight="bold" lengthAdjust="spacing" text-decoration="underline" textLength="242" x="342" y="225.1996">Header in navigation bar (unlinked)</text><ellipse cx="334.5" cy="237.2996" fill="#000000" rx="2.5" ry="2.5" style="stroke:#000000;stroke-width:0.0;"/><text fill="#000000" font-family="sans-serif" font-size="14" lengthAdjust="spacing" textLength="223" x="342" y="241.9996">Page without entry in navigation bar</text><ellipse cx="334.5" cy="254.0995" fill="#000000" rx="2.5" ry="2.5" style="stroke:#000000;stroke-width:0.0;"/><text fill="#000000" font-family="sans-serif" font-size="14" lengthAdjust="spacing" text-decoration="underline" textLength="92" x="342" y="258.7995">descriptive text</text><text fill="#000000" font-family="sans-serif" font-size="14" lengthAdjust="spacing" textLength="0" x="333" y="275.5994"/><!--MD5=[a57ea1bfadf395dcedeb5327d089fc28]
@startmindmap
+ **ASAM Project Guide Structure**
++ **Compendium**

+++ **Processes And Workflows**

+++ **Definitions**

+++ **Abbreviations**
legend right
    * **Page in navigation bar (linked)**
    * __**Header in navigation bar (unlinked)**__
    * Page without entry in navigation bar
    * __descriptive text__

end legend

@endmindmap

PlantUML version 1.2021.10(Mon Aug 30 13:43:48 GMT 2021)
(GPL source distribution)
Java Runtime: OpenJDK Runtime Environment
JVM: OpenJDK 64-Bit Server VM
Default Encoding: UTF-8
Language: en
Country: US
--></g></svg>