<svg width="773" height="356" xmlns="http://www.w3.org/2000/svg" xmlns:xlink="http://www.w3.org/1999/xlink" overflow="hidden"><defs><clipPath id="clip0"><path d="M254 387 1027 387 1027 743 254 743Z" fill-rule="evenodd" clip-rule="evenodd"/></clipPath></defs><g clip-path="url(#clip0)" transform="translate(-254 -387)"><path d="M255.5 529.4C255.5 524.485 259.485 520.5 264.4 520.5L394.6 520.5C399.516 520.5 403.5 524.485 403.5 529.4L403.5 600.6C403.5 605.516 399.515 609.5 394.6 609.5L264.4 609.5C259.485 609.5 255.5 605.515 255.5 600.6Z" stroke="#FFFFFF" stroke-width="1.33333" stroke-miterlimit="8" fill="#006EA5" fill-rule="evenodd"/><text fill="#FFFFFF" font-family="Arial,Arial_MSFontService,sans-serif" font-weight="400" font-size="25" transform="translate(282.983 559)">Working <tspan x="16.6533" y="26">Copy</tspan></text><path d="M418 553.4 433.5 553.4 433.5 546 449 564.5 433.5 583 433.5 575.6 418 575.6Z" fill="#AABACF" fill-rule="evenodd"/><path d="M462.5 529.4C462.5 524.485 466.485 520.5 471.4 520.5L601.6 520.5C606.516 520.5 610.5 524.485 610.5 529.4L610.5 600.6C610.5 605.516 606.515 609.5 601.6 609.5L471.4 609.5C466.485 609.5 462.5 605.515 462.5 600.6Z" stroke="#FFFFFF" stroke-width="1.33333" stroke-miterlimit="8" fill="#006EA5" fill-rule="evenodd"/><text fill="#FFFFFF" font-family="Arial,Arial_MSFontService,sans-serif" font-weight="400" font-size="25" transform="translate(493.444 559)">Staging <tspan x="16.2067" y="26">Area</tspan></text><path d="M625 553.4 641 553.4 641 546 657 564.5 641 583 641 575.6 625 575.6Z" fill="#AABACF" fill-rule="evenodd"/><path d="M670.5 529.4C670.5 524.485 674.485 520.5 679.4 520.5L809.6 520.5C814.516 520.5 818.5 524.485 818.5 529.4L818.5 600.6C818.5 605.516 814.515 609.5 809.6 609.5L679.4 609.5C674.485 609.5 670.5 605.515 670.5 600.6Z" stroke="#FFFFFF" stroke-width="1.33333" stroke-miterlimit="8" fill="#006EA5" fill-rule="evenodd"/><text fill="#FFFFFF" font-family="Arial,Arial_MSFontService,sans-serif" font-weight="400" font-size="25" transform="translate(713.322 559)">Local <tspan x="-30.26" y="26">Repository</tspan></text><path d="M832 553.4 848 553.4 848 546 864 564.5 848 583 848 575.6 832 575.6Z" fill="#AABACF" fill-rule="evenodd"/><path d="M877.5 529.4C877.5 524.485 881.485 520.5 886.4 520.5L1016.6 520.5C1021.52 520.5 1025.5 524.485 1025.5 529.4L1025.5 600.6C1025.5 605.516 1021.52 609.5 1016.6 609.5L886.4 609.5C881.485 609.5 877.5 605.515 877.5 600.6Z" stroke="#FFFFFF" stroke-width="1.33333" stroke-miterlimit="8" fill="#006EA5" fill-rule="evenodd"/><text fill="#FFFFFF" font-family="Arial,Arial_MSFontService,sans-serif" font-weight="400" font-size="25" transform="translate(906.454 559)">Remote <tspan x="-16.1934" y="26">Repository</tspan><tspan fill="#333333" font-family="Hack,Hack_MSFontService,sans-serif" font-size="24" x="-520.79" y="-59">git add</tspan><tspan fill="#333333" font-family="Hack,Hack_MSFontService,sans-serif" font-size="24" x="-107.031" y="-59">git push</tspan><tspan fill="#333333" font-family="Hack,Hack_MSFontService,sans-serif" font-size="24" x="-325.299" y="-59">git commit</tspan></text></g></svg>