<?xml version="1.0" encoding="UTF-8" standalone="no"?><svg xmlns="http://www.w3.org/2000/svg" xmlns:xlink="http://www.w3.org/1999/xlink" contentScriptType="application/ecmascript" contentStyleType="text/css" height="188px" preserveAspectRatio="none" style="width:113px;height:188px;" version="1.1" viewBox="0 0 113 188" width="113px" zoomAndPan="magnify"><defs><filter height="300%" id="fe705bm959846" width="300%" x="-1" y="-1"><feGaussianBlur result="blurOut" stdDeviation="2.0"/><feColorMatrix in="blurOut" result="blurOut2" type="matrix" values="0 0 0 0 0 0 0 0 0 0 0 0 0 0 0 0 0 0 .4 0"/><feOffset dx="4.0" dy="4.0" in="blurOut2" result="blurOut3"/><feBlend in="SourceGraphic" in2="blurOut3" mode="normal"/></filter></defs><g><!--MD5=[607882b6d95e01e20da090c067c0898a]
entity tst1--><polygon fill="#FEFECE" filter="url(#fe705bm959846)" points="16,16,26,6,91,6,91,42.7999,81,52.7999,16,52.7999,16,16" style="stroke: #000000; stroke-width: 1.5;"/><line style="stroke: #000000; stroke-width: 1.5;" x1="81" x2="90" y1="16" y2="7"/><line style="stroke: #000000; stroke-width: 1.5;" x1="16" x2="81" y1="16" y2="16"/><line style="stroke: #000000; stroke-width: 1.5;" x1="81" x2="81" y1="16" y2="52.7999"/><text fill="#000000" font-family="sans-serif" font-size="14" lengthAdjust="spacingAndGlyphs" textLength="35" x="31" y="39.9999">Test1</text><!--MD5=[952965c8440f9437b1bb73c480967198]
entity tst2--><polygon fill="#FEFECE" filter="url(#fe705bm959846)" points="16,140,26,130,91,130,91,166.7999,81,176.7999,16,176.7999,16,140" style="stroke: #000000; stroke-width: 1.5;"/><line style="stroke: #000000; stroke-width: 1.5;" x1="81" x2="90" y1="140" y2="131"/><line style="stroke: #000000; stroke-width: 1.5;" x1="16" x2="81" y1="140" y2="140"/><line style="stroke: #000000; stroke-width: 1.5;" x1="81" x2="81" y1="140" y2="176.7999"/><text fill="#000000" font-family="sans-serif" font-size="14" lengthAdjust="spacingAndGlyphs" textLength="35" x="31" y="163.9999">Test2</text><!--MD5=[8d4d051a9be125d9064359fe28920b08]
link tst1 to tst2--><path d="M53.5,53.16 C53.5,73.45 53.5,103.25 53.5,124.92 " fill="none" id="tst1-&gt;tst2" style="stroke: #A80036; stroke-width: 1.0;"/><polygon fill="#A80036" points="53.5,129.96,57.5,120.96,53.5,124.96,49.5,120.96,53.5,129.96" style="stroke: #A80036; stroke-width: 1.0;"/><text fill="#000000" font-family="sans-serif" font-size="13" lengthAdjust="spacingAndGlyphs" textLength="42" x="54.5" y="97">caption</text><!--MD5=[e08fde369ecf685da042e8fc4a486b3e]
@startuml
node "Test1" as tst1
node "Test2" as tst2
tst1 - -> tst2: caption
@enduml

PlantUML version 1.2020.15(Sun Jun 28 11:39:45 GMT 2020)
(GPL source distribution)
Java Runtime: OpenJDK Runtime Environment
JVM: OpenJDK 64-Bit Server VM
Default Encoding: UTF-8
Language: en
Country: US
--></g></svg>