<svg xmlns="http://www.w3.org/2000/svg" width="327.12" height="81.493" viewBox="0 0 327.12 81.493"><path d="M74.168 42.223L42.221 74.169l26.388-5.557 5.56-26.39zM39.262 74.169L7.315 42.223l5.558 26.39 26.389 5.556zM7.315 39.264L39.262 7.317l-26.39 5.558-5.557 26.389zM42.22 7.317l31.947 31.947-5.559-26.39L42.22 7.317zm13.842 33.43c0 8.446-6.872 15.318-15.318 15.318-8.445 0-15.315-6.872-15.315-15.318 0-8.445 6.87-15.317 15.315-15.317 8.446 0 15.318 6.872 15.318 15.317zm25.428 1.175v-2.357H58.83c-.59-9.064-7.849-16.32-16.912-16.904V.003h-2.356v22.66c-9.06.588-16.315 7.842-16.904 16.902H0v2.357h22.659c.584 9.063 7.841 16.322 16.904 16.911v22.66h2.356V58.837c9.067-.586 16.328-7.846 16.912-16.914h22.66M298.35 56.057l8.165-11.587c2.8-3.965 5.6-8.086 8.242-12.053l.156.079a774.185 774.185 0 00-.156 13.998v22.55h12.364v-56.3H315.38L298.661 36.54l-16.718-23.795h-11.898v56.3h11.898v-22.55c0-4.667-.078-9.955-.156-13.998l.156-.079a546.815 546.815 0 008.242 12.053l8.166 11.587zm-70.373-14.541a599.27 599.27 0 005.288-14.62h.156c1.478 4.277 3.499 9.876 5.132 14.31l2.332 6.298h-15.162l2.254-5.988zM204.65 69.044h12.675l4.588-11.82h22.707l4.509 11.82h13.22l-22.861-56.3H227.51l-22.862 56.3zm-42.145-3.266c5.287 2.72 12.208 4.12 17.807 4.12 12.13 0 20.45-6.609 20.45-17.572 0-9.953-6.842-13.92-15.318-16.72-6.766-2.256-11.975-2.643-11.975-7.621 0-3.732 3.032-5.288 7.232-5.288 4.355 0 11.275 1.711 17.263 5.444v-12.21c-4.899-2.642-11.664-4.042-17.186-4.042-11.82 0-19.75 6.532-19.75 17.03 0 9.797 6.997 13.607 14.773 16.175 7.232 2.332 12.52 2.798 12.52 8.009 0 4.198-3.344 5.988-7.853 5.988-4.434 0-11.976-1.79-17.963-5.833v12.52zm-40.98-24.262a599.27 599.27 0 005.288-14.62h.156c1.477 4.277 3.499 9.876 5.133 14.31l2.332 6.298H119.27l2.255-5.988zM98.196 69.044h12.674l4.589-11.82h22.706l4.511 11.82h13.219l-22.862-56.3h-11.976l-22.861 56.3" fill="#3070ad"/></svg>