<?xml version="1.0" encoding="UTF-8" standalone="no"?><svg xmlns="http://www.w3.org/2000/svg" xmlns:xlink="http://www.w3.org/1999/xlink" contentScriptType="application/ecmascript" contentStyleType="text/css" height="1043px" preserveAspectRatio="none" style="width:1055px;height:1043px;background:#FFFFFF;" version="1.1" viewBox="0 0 1055 1043" width="1055px" zoomAndPan="magnify"><defs><filter height="300%" id="f16fu2c6pa7620" width="300%" x="-1" y="-1"><feGaussianBlur result="blurOut" stdDeviation="2.0"/><feColorMatrix in="blurOut" result="blurOut2" type="matrix" values="0 0 0 0 0 0 0 0 0 0 0 0 0 0 0 0 0 0 .4 0"/><feOffset dx="4.0" dy="4.0" in="blurOut2" result="blurOut3"/><feBlend in="SourceGraphic" in2="blurOut3" mode="normal"/></filter></defs><g><rect fill="#FEFECE" filter="url(#f16fu2c6pa7620)" height="36.7999" rx="12.5" ry="12.5" style="stroke:#A80036;stroke-width:1.5;" width="227" x="10" y="445.9995"/><text fill="#000000" font-family="sans-serif" font-size="14" font-weight="bold" lengthAdjust="spacing" textLength="207" x="20" y="469.9994">ASAM Project Guide Structure</text><rect fill="#FEFECE" filter="url(#f16fu2c6pa7620)" height="36.7999" rx="12.5" ry="12.5" style="stroke:#A80036;stroke-width:1.5;" width="227" x="287" y="445.9995"/><text fill="#000000" font-family="sans-serif" font-size="14" font-weight="bold" lengthAdjust="spacing" textLength="207" x="297" y="469.9994">Working On The Project Guide</text><rect fill="#FEFECE" filter="url(#f16fu2c6pa7620)" height="36.7999" rx="12.5" ry="12.5" style="stroke:#A80036;stroke-width:1.5;" width="210" x="564" y="20"/><text fill="#000000" font-family="sans-serif" font-size="14" font-weight="bold" lengthAdjust="spacing" textLength="190" x="574" y="43.9999">The Project Guide Structure</text><path d="M514,464.3994 L524,464.3994 C539,464.3994 539,38.4 554,38.4 L564,38.4 " fill="none" style="stroke:#A80036;stroke-width:1.0;"/><rect fill="#FEFECE" filter="url(#f16fu2c6pa7620)" height="36.7999" rx="12.5" ry="12.5" style="stroke:#A80036;stroke-width:1.5;" width="79" x="564" y="76.7999"/><text fill="#000000" font-family="sans-serif" font-size="14" font-weight="bold" lengthAdjust="spacing" textLength="59" x="574" y="100.7999">Modules</text><path d="M514,464.3994 L524,464.3994 C539,464.3994 539,95.1999 554,95.1999 L564,95.1999 " fill="none" style="stroke:#A80036;stroke-width:1.0;"/><rect fill="#FEFECE" filter="url(#f16fu2c6pa7620)" height="36.7999" rx="12.5" ry="12.5" style="stroke:#A80036;stroke-width:1.5;" width="140" x="564" y="133.5999"/><text fill="#000000" font-family="sans-serif" font-size="14" font-weight="bold" lengthAdjust="spacing" textLength="120" x="574" y="157.5998">Pages VS Partials</text><path d="M514,464.3994 L524,464.3994 C539,464.3994 539,151.9998 554,151.9998 L564,151.9998 " fill="none" style="stroke:#A80036;stroke-width:1.0;"/><rect fill="#FEFECE" filter="url(#f16fu2c6pa7620)" height="36.7999" rx="12.5" ry="12.5" style="stroke:#A80036;stroke-width:1.5;" width="62" x="564" y="218.7997"/><text fill="#000000" font-family="sans-serif" font-size="14" font-weight="bold" lengthAdjust="spacing" textLength="42" x="574" y="242.7997">Pages</text><rect fill="#FEFECE" filter="url(#f16fu2c6pa7620)" height="36.7999" rx="12.5" ry="12.5" style="stroke:#A80036;stroke-width:1.5;" width="116" x="676" y="190.3998"/><text fill="#000000" font-family="sans-serif" font-size="14" font-weight="bold" lengthAdjust="spacing" textLength="96" x="686" y="214.3997">Adding Pages</text><path d="M626,237.1997 L636,237.1997 C651,237.1997 651,208.7997 666,208.7997 L676,208.7997 " fill="none" style="stroke:#A80036;stroke-width:1.0;"/><rect fill="#FEFECE" filter="url(#f16fu2c6pa7620)" height="36.7999" rx="12.5" ry="12.5" style="stroke:#A80036;stroke-width:1.5;" width="258" x="676" y="247.1997"/><text fill="#000000" font-family="sans-serif" font-size="14" font-weight="bold" lengthAdjust="spacing" textLength="238" x="686" y="271.1996">Moving/Renaming/Deleting A Page</text><path d="M626,237.1997 L636,237.1997 C651,237.1997 651,265.5997 666,265.5997 L676,265.5997 " fill="none" style="stroke:#A80036;stroke-width:1.0;"/><path d="M514,464.3994 L524,464.3994 C539,464.3994 539,237.1997 554,237.1997 L564,237.1997 " fill="none" style="stroke:#A80036;stroke-width:1.0;"/><rect fill="#FEFECE" filter="url(#f16fu2c6pa7620)" height="36.7999" rx="12.5" ry="12.5" style="stroke:#A80036;stroke-width:1.5;" width="71" x="564" y="303.9996"/><text fill="#000000" font-family="sans-serif" font-size="14" font-weight="bold" lengthAdjust="spacing" textLength="51" x="574" y="327.9996">Partials</text><rect fill="#FEFECE" filter="url(#f16fu2c6pa7620)" height="36.7999" rx="12.5" ry="12.5" style="stroke:#A80036;stroke-width:1.5;" width="125" x="685" y="303.9996"/><text fill="#000000" font-family="sans-serif" font-size="14" font-weight="bold" lengthAdjust="spacing" textLength="105" x="695" y="327.9996">Adding Partials</text><path d="M635,322.3996 L645,322.3996 C660,322.3996 660,322.3996 675,322.3996 L685,322.3996 " fill="none" style="stroke:#A80036;stroke-width:1.0;"/><path d="M514,464.3994 L524,464.3994 C539,464.3994 539,322.3996 554,322.3996 L564,322.3996 " fill="none" style="stroke:#A80036;stroke-width:1.0;"/><rect fill="#FEFECE" filter="url(#f16fu2c6pa7620)" height="36.7999" rx="12.5" ry="12.5" style="stroke:#A80036;stroke-width:1.5;" width="204" x="564" y="474.3994"/><text fill="#000000" font-family="sans-serif" font-size="14" font-weight="bold" lengthAdjust="spacing" textLength="184" x="574" y="498.3994">Referencing And Including</text><rect fill="#FEFECE" filter="url(#f16fu2c6pa7620)" height="36.7999" rx="12.5" ry="12.5" style="stroke:#A80036;stroke-width:1.5;" width="70" x="818" y="360.7996"/><text fill="#000000" font-family="sans-serif" font-size="14" font-weight="bold" lengthAdjust="spacing" textLength="50" x="828" y="384.7995">Images</text><path d="M768,492.7994 L778,492.7994 C793,492.7994 793,379.1995 808,379.1995 L818,379.1995 " fill="none" style="stroke:#A80036;stroke-width:1.0;"/><rect fill="#FEFECE" filter="url(#f16fu2c6pa7620)" height="36.7999" rx="12.5" ry="12.5" style="stroke:#A80036;stroke-width:1.5;" width="87" x="818" y="417.5995"/><text fill="#000000" font-family="sans-serif" font-size="14" font-weight="bold" lengthAdjust="spacing" textLength="67" x="828" y="441.5994">Examples</text><path d="M768,492.7994 L778,492.7994 C793,492.7994 793,435.9995 808,435.9995 L818,435.9995 " fill="none" style="stroke:#A80036;stroke-width:1.0;"/><rect fill="#FEFECE" filter="url(#f16fu2c6pa7620)" height="36.7999" rx="12.5" ry="12.5" style="stroke:#A80036;stroke-width:1.5;" width="107" x="818" y="474.3994"/><text fill="#000000" font-family="sans-serif" font-size="14" font-weight="bold" lengthAdjust="spacing" textLength="87" x="828" y="498.3994">Attachments</text><path d="M768,492.7994 L778,492.7994 C793,492.7994 793,492.7994 808,492.7994 L818,492.7994 " fill="none" style="stroke:#A80036;stroke-width:1.0;"/><rect fill="#FEFECE" filter="url(#f16fu2c6pa7620)" height="36.7999" rx="12.5" ry="12.5" style="stroke:#A80036;stroke-width:1.5;" width="218" x="818" y="531.1993"/><text fill="#000000" font-family="sans-serif" font-size="14" font-weight="bold" lengthAdjust="spacing" textLength="198" x="828" y="555.1993">Including Pages And Partials</text><path d="M768,492.7994 L778,492.7994 C793,492.7994 793,549.5993 808,549.5993 L818,549.5993 " fill="none" style="stroke:#A80036;stroke-width:1.0;"/><rect fill="#FEFECE" filter="url(#f16fu2c6pa7620)" height="36.7999" rx="12.5" ry="12.5" style="stroke:#A80036;stroke-width:1.5;" width="143" x="818" y="587.9993"/><text fill="#000000" font-family="sans-serif" font-size="14" font-weight="bold" lengthAdjust="spacing" textLength="123" x="828" y="611.9992">Cross-referencing</text><path d="M768,492.7994 L778,492.7994 C793,492.7994 793,606.3992 808,606.3992 L818,606.3992 " fill="none" style="stroke:#A80036;stroke-width:1.0;"/><path d="M514,464.3994 L524,464.3994 C539,464.3994 539,492.7994 554,492.7994 L564,492.7994 " fill="none" style="stroke:#A80036;stroke-width:1.0;"/><rect fill="#FEFECE" filter="url(#f16fu2c6pa7620)" height="36.7999" rx="12.5" ry="12.5" style="stroke:#A80036;stroke-width:1.5;" width="70" x="564" y="701.5991"/><text fill="#000000" font-family="sans-serif" font-size="14" font-weight="bold" lengthAdjust="spacing" textLength="50" x="574" y="725.5991">Macros</text><rect fill="#FEFECE" filter="url(#f16fu2c6pa7620)" height="36.7999" rx="12.5" ry="12.5" style="stroke:#A80036;stroke-width:1.5;" width="99" x="684" y="644.7992"/><text fill="#000000" font-family="sans-serif" font-size="14" font-weight="bold" lengthAdjust="spacing" textLength="79" x="694" y="668.7991">Asciidoctor</text><path d="M634,719.9991 L644,719.9991 C659,719.9991 659,663.1992 674,663.1992 L684,663.1992 " fill="none" style="stroke:#A80036;stroke-width:1.0;"/><rect fill="#FEFECE" filter="url(#f16fu2c6pa7620)" height="36.7999" rx="12.5" ry="12.5" style="stroke:#A80036;stroke-width:1.5;" width="66" x="684" y="701.5991"/><text fill="#000000" font-family="sans-serif" font-size="14" font-weight="bold" lengthAdjust="spacing" textLength="46" x="694" y="725.5991">Antora</text><path d="M634,719.9991 L644,719.9991 C659,719.9991 659,719.9991 674,719.9991 L684,719.9991 " fill="none" style="stroke:#A80036;stroke-width:1.0;"/><rect fill="#FEFECE" filter="url(#f16fu2c6pa7620)" height="36.7999" rx="12.5" ry="12.5" style="stroke:#A80036;stroke-width:1.5;" width="116" x="684" y="758.399"/><text fill="#000000" font-family="sans-serif" font-size="14" font-weight="bold" lengthAdjust="spacing" textLength="96" x="694" y="782.399">ASAM Macros</text><path d="M634,719.9991 L644,719.9991 C659,719.9991 659,776.799 674,776.799 L684,776.799 " fill="none" style="stroke:#A80036;stroke-width:1.0;"/><path d="M514,464.3994 L524,464.3994 C539,464.3994 539,719.9991 554,719.9991 L564,719.9991 " fill="none" style="stroke:#A80036;stroke-width:1.0;"/><rect fill="#FEFECE" filter="url(#f16fu2c6pa7620)" height="36.7999" rx="12.5" ry="12.5" style="stroke:#A80036;stroke-width:1.5;" width="171" x="564" y="815.199"/><text fill="#000000" font-family="sans-serif" font-size="14" font-weight="bold" lengthAdjust="spacing" textLength="151" x="574" y="839.1989">Working With Projects</text><path d="M514,464.3994 L524,464.3994 C539,464.3994 539,833.5989 554,833.5989 L564,833.5989 " fill="none" style="stroke:#A80036;stroke-width:1.0;"/><rect fill="#FEFECE" filter="url(#f16fu2c6pa7620)" height="36.7999" rx="12.5" ry="12.5" style="stroke:#A80036;stroke-width:1.5;" width="115" x="564" y="871.9989"/><text fill="#000000" font-family="sans-serif" font-size="14" lengthAdjust="spacing" textLength="95" x="574" y="895.9988">Additional Infos</text><path d="M514,464.3994 L524,464.3994 C539,464.3994 539,890.3989 554,890.3989 L564,890.3989 " fill="none" style="stroke:#A80036;stroke-width:1.0;"/><path d="M237,464.3994 L247,464.3994 C262,464.3994 262,464.3994 277,464.3994 L287,464.3994 " fill="none" style="stroke:#A80036;stroke-width:1.0;"/><rect fill="#DDDDDD" height="95.9996" rx="7.5" ry="7.5" style="stroke:#000000;stroke-width:1.0;" width="267" x="710" y="926.7988"/><ellipse cx="721.5" cy="942.0988" fill="#000000" rx="2.5" ry="2.5" style="stroke:#000000;stroke-width:0.0;"/><text fill="#000000" font-family="sans-serif" font-size="14" font-weight="bold" lengthAdjust="spacing" textLength="210" x="729" y="946.7988">Page in navigation bar (linked)</text><ellipse cx="721.5" cy="958.8987" fill="#000000" rx="2.5" ry="2.5" style="stroke:#000000;stroke-width:0.0;"/><text fill="#000000" font-family="sans-serif" font-size="14" font-weight="bold" lengthAdjust="spacing" text-decoration="underline" textLength="242" x="729" y="963.5987">Header in navigation bar (unlinked)</text><ellipse cx="721.5" cy="975.6986" fill="#000000" rx="2.5" ry="2.5" style="stroke:#000000;stroke-width:0.0;"/><text fill="#000000" font-family="sans-serif" font-size="14" lengthAdjust="spacing" textLength="223" x="729" y="980.3986">Page without entry in navigation bar</text><ellipse cx="721.5" cy="992.4985" fill="#000000" rx="2.5" ry="2.5" style="stroke:#000000;stroke-width:0.0;"/><text fill="#000000" font-family="sans-serif" font-size="14" lengthAdjust="spacing" text-decoration="underline" textLength="92" x="729" y="997.1985">descriptive text</text><text fill="#000000" font-family="sans-serif" font-size="14" lengthAdjust="spacing" textLength="0" x="720" y="1013.9985"/><!--MD5=[6a285a954742b8706921c8acdeaaca60]
@startmindmap
+ **ASAM Project Guide Structure**
++ **Working On The Project Guide**

+++ **The Project Guide Structure**

+++ **Modules**

+++ **Pages VS Partials**

+++ **Pages**

++++ **Adding Pages**

++++ **Moving/Renaming/Deleting A Page**

+++ **Partials**

++++ **Adding Partials**

+++ **Referencing And Including**

++++ **Images**

++++ **Examples**

++++ **Attachments**

++++ **Including Pages And Partials**

++++ **Cross-referencing**

+++ **Macros**

++++ **Asciidoctor**

++++ **Antora**

++++ **ASAM Macros**

+++ **Working With Projects**

+++ Additional Infos
legend right
    * **Page in navigation bar (linked)**
    * __**Header in navigation bar (unlinked)**__
    * Page without entry in navigation bar
    * __descriptive text__

end legend

@endmindmap

PlantUML version 1.2021.10(Mon Aug 30 13:43:48 GMT 2021)
(GPL source distribution)
Java Runtime: OpenJDK Runtime Environment
JVM: OpenJDK 64-Bit Server VM
Default Encoding: UTF-8
Language: en
Country: US
--></g></svg>