<?xml version="1.0" encoding="UTF-8"?>
<!DOCTYPE svg PUBLIC "-//W3C//DTD SVG 1.1//EN" "http://www.w3.org/Graphics/SVG/1.1/DTD/svg11.dtd">
<svg xmlns="http://www.w3.org/2000/svg" xmlns:xlink="http://www.w3.org/1999/xlink" version="1.1" width="882px" height="22px" viewBox="-0.5 -0.5 882 22" style="background-color: rgb(255, 255, 255);"><defs/><g><path d="M 1 1 L 88 1 L 101 11 L 88 21 L 1 21 L 14 11 Z" fill="#75bdd1" stroke="rgb(0, 0, 0)" stroke-width="2" stroke-miterlimit="10" pointer-events="all"/><path d="M 88 1 L 175 1 L 188 11 L 175 21 L 88 21 L 101 11 Z" fill="rgb(255, 255, 255)" stroke="rgb(0, 0, 0)" stroke-miterlimit="10" pointer-events="all"/><path d="M 174 1 L 261 1 L 274 11 L 261 21 L 174 21 L 187 11 Z" fill="rgb(255, 255, 255)" stroke="rgb(0, 0, 0)" stroke-miterlimit="10" pointer-events="all"/><path d="M 261 1 L 348 1 L 361 11 L 348 21 L 261 21 L 274 11 Z" fill="rgb(255, 255, 255)" stroke="rgb(0, 0, 0)" stroke-miterlimit="10" pointer-events="all"/><path d="M 348 1 L 435 1 L 448 11 L 435 21 L 348 21 L 361 11 Z" fill="rgb(255, 255, 255)" stroke="rgb(0, 0, 0)" stroke-miterlimit="10" pointer-events="all"/><path d="M 434 1 L 521 1 L 534 11 L 521 21 L 434 21 L 447 11 Z" fill="rgb(255, 255, 255)" stroke="rgb(0, 0, 0)" stroke-miterlimit="10" pointer-events="all"/><path d="M 521 1 L 608 1 L 621 11 L 608 21 L 521 21 L 534 11 Z" fill="rgb(255, 255, 255)" stroke="rgb(0, 0, 0)" stroke-miterlimit="10" pointer-events="all"/><path d="M 608 1 L 695 1 L 708 11 L 695 21 L 608 21 L 621 11 Z" fill="rgb(255, 255, 255)" stroke="rgb(0, 0, 0)" stroke-miterlimit="10" pointer-events="all"/><path d="M 694 1 L 781 1 L 794 11 L 781 21 L 694 21 L 707 11 Z" fill="rgb(255, 255, 255)" stroke="rgb(0, 0, 0)" stroke-miterlimit="10" pointer-events="all"/><path d="M 781 1 L 868 1 L 881 11 L 868 21 L 781 21 L 794 11 Z" fill="rgb(255, 255, 255)" stroke="rgb(0, 0, 0)" stroke-miterlimit="10" pointer-events="all"/></g></svg>