<?xml version="1.0" encoding="UTF-8"?>
<!DOCTYPE svg PUBLIC "-//W3C//DTD SVG 1.1//EN" "http://www.w3.org/Graphics/SVG/1.1/DTD/svg11.dtd">
<svg xmlns="http://www.w3.org/2000/svg" xmlns:xlink="http://www.w3.org/1999/xlink" version="1.1" width="881px" height="22px" viewBox="-0.5 -0.5 881 22" style="background-color: rgb(255, 255, 255);"><defs/><g><path d="M 0 0 L 87 0 L 100 10 L 87 20 L 0 20 L 13 10 Z" fill="#0082a5" stroke="rgb(0, 0, 0)" stroke-miterlimit="10" pointer-events="all"/><path d="M 87 0 L 174 0 L 187 10 L 174 20 L 87 20 L 100 10 Z" fill="rgb(255, 255, 255)" stroke="rgb(0, 0, 0)" stroke-miterlimit="10" pointer-events="all"/><path d="M 173 0 L 260 0 L 273 10 L 260 20 L 173 20 L 186 10 Z" fill="rgb(255, 255, 255)" stroke="rgb(0, 0, 0)" stroke-miterlimit="10" pointer-events="all"/><path d="M 260 0 L 347 0 L 360 10 L 347 20 L 260 20 L 273 10 Z" fill="rgb(255, 255, 255)" stroke="rgb(0, 0, 0)" stroke-miterlimit="10" pointer-events="all"/><path d="M 347 0 L 434 0 L 447 10 L 434 20 L 347 20 L 360 10 Z" fill="rgb(255, 255, 255)" stroke="rgb(0, 0, 0)" stroke-miterlimit="10" pointer-events="all"/><path d="M 433 0 L 520 0 L 533 10 L 520 20 L 433 20 L 446 10 Z" fill="rgb(255, 255, 255)" stroke="rgb(0, 0, 0)" stroke-miterlimit="10" pointer-events="all"/><path d="M 520 0 L 607 0 L 620 10 L 607 20 L 520 20 L 533 10 Z" fill="rgb(255, 255, 255)" stroke="rgb(0, 0, 0)" stroke-miterlimit="10" pointer-events="all"/><path d="M 607 0 L 694 0 L 707 10 L 694 20 L 607 20 L 620 10 Z" fill="rgb(255, 255, 255)" stroke="rgb(0, 0, 0)" stroke-miterlimit="10" pointer-events="all"/><path d="M 693 0 L 780 0 L 793 10 L 780 20 L 693 20 L 706 10 Z" fill="rgb(255, 255, 255)" stroke="rgb(0, 0, 0)" stroke-miterlimit="10" pointer-events="all"/><path d="M 780 0 L 867 0 L 880 10 L 867 20 L 780 20 L 793 10 Z" fill="rgb(255, 255, 255)" stroke="rgb(0, 0, 0)" stroke-miterlimit="10" pointer-events="all"/></g></svg>