<?xml version="1.0" encoding="UTF-8" standalone="no"?><svg xmlns="http://www.w3.org/2000/svg" xmlns:xlink="http://www.w3.org/1999/xlink" contentScriptType="application/ecmascript" contentStyleType="text/css" height="291px" preserveAspectRatio="none" style="width:237px;height:291px;background:#FFFFFF;" version="1.1" viewBox="0 0 237 291" width="237px" zoomAndPan="magnify"><defs><filter height="300%" id="f6bcyqglx1ech" width="300%" x="-1" y="-1"><feGaussianBlur result="blurOut" stdDeviation="2.0"/><feColorMatrix in="blurOut" result="blurOut2" type="matrix" values="0 0 0 0 0 0 0 0 0 0 0 0 0 0 0 0 0 0 .4 0"/><feOffset dx="4.0" dy="4.0" in="blurOut2" result="blurOut3"/><feBlend in="SourceGraphic" in2="blurOut3" mode="normal"/></filter></defs><g><!--MD5=[a20d442ddd29cc547e69aa995fa51819]
entity OSC--><path d="M6,16 C6,6 80,6 80,6 C80,6 154,6 154,16 L154,41.7999 C154,51.7999 80,51.7999 80,51.7999 C80,51.7999 6,51.7999 6,41.7999 L6,16 " fill="#FEFECE" filter="url(#f6bcyqglx1ech)" style="stroke:#000000;stroke-width:1.5;"/><path d="M6,16 C6,26 80,26 80,26 C80,26 154,26 154,16 " fill="none" style="stroke:#000000;stroke-width:1.5;"/><text fill="#000000" font-family="sans-serif" font-size="14" lengthAdjust="spacing" textLength="128" x="16" y="43.9999">OSC Model Instance</text><!--MD5=[69bbe83c082dcdde6f12268d34b3c4d6]
entity OSC Director--><rect fill="#FEFECE" filter="url(#f6bcyqglx1ech)" height="36.7999" style="stroke:#000000;stroke-width:1.5;" width="102" x="29" y="129"/><text fill="#000000" font-family="sans-serif" font-size="14" lengthAdjust="spacing" textLength="82" x="39" y="152.9999">OSC Director</text><!--MD5=[a9e110ed9fd6db79679fc7368f1f465d]
entity Simulator Core--><rect fill="#FEFECE" filter="url(#f6bcyqglx1ech)" height="36.7999" style="stroke:#000000;stroke-width:1.5;" width="111" x="24.5" y="243"/><text fill="#000000" font-family="sans-serif" font-size="14" lengthAdjust="spacing" textLength="91" x="34.5" y="266.9999">Simulator Core</text><!--MD5=[875cd890e7249174f339ab6f87de3d09]
link OSC to OSC Director--><path d="M80,52.19 C80,72.76 80,103.22 80,123.92 " fill="none" id="OSC-to-OSC Director" style="stroke:#A80036;stroke-width:1.0;"/><polygon fill="#A80036" points="80,128.96,84,119.96,80,123.96,76,119.96,80,128.96" style="stroke:#A80036;stroke-width:1.0;"/><text fill="#000000" font-family="sans-serif" font-size="13" lengthAdjust="spacing" textLength="69" x="81" y="96">is intepreted</text><!--MD5=[6debd4b10d1732152f886b40eba4b03a]
link OSC Director to Simulator Core--><path d="M80,166.49 C80,185.88 80,216.76 80,237.8 " fill="none" id="OSC Director-to-Simulator Core" style="stroke:#A80036;stroke-width:1.0;"/><polygon fill="#A80036" points="80,242.92,84,233.92,80,237.92,76,233.92,80,242.92" style="stroke:#A80036;stroke-width:1.0;"/><text fill="#000000" font-family="sans-serif" font-size="13" lengthAdjust="spacing" textLength="148" x="81" y="210">orchestrates the scenarios</text><!--MD5=[3e41571b8bb9a2b621b44aa5d054f023]
@startuml
skinparam componentStyle rectangle

database "OSC Model Instance" as OSC
[OSC Director]

OSC - -> [OSC Director]: is intepreted
[OSC Director] - -> [Simulator Core] : orchestrates the scenarios
@enduml

PlantUML version 1.2021.10(Mon Aug 30 13:43:48 GMT 2021)
(GPL source distribution)
Java Runtime: OpenJDK Runtime Environment
JVM: OpenJDK 64-Bit Server VM
Default Encoding: UTF-8
Language: en
Country: US
--></g></svg>