<?xml version="1.0" encoding="UTF-8"?><svg xmlns="http://www.w3.org/2000/svg" width="310" height="294" version="1.0" shape-rendering="geometricPrecision"><defs><style type="text/css">@font-face {
  font-family: sans-serif;
}</style><filter id="shadowBlur" x="0" y="0" width="200%" height="200%"><feOffset in="SourceGraphic" dx="3.0003002" dy="3.0003002" result="offOut"></feOffset><feGaussianBlur in="offOut" stdDeviation="3"></feGaussianBlur></filter></defs><g stroke-width="1" stroke-linecap="square" stroke-linejoin="round"><rect x="0" y="0" width="310" height="294" style="fill: #ffffff"></rect><path stroke="#969696" fill="#969696" filter="url(#shadowBlur)" d="M25.0 161.0 L285.0 161.0 L285.0 189.0 L25.0 189.0 z"></path><path stroke="#969696" fill="#969696" filter="url(#shadowBlur)" d="M25.0 231.0 L285.0 231.0 L285.0 259.0 L25.0 259.0 z"></path><path stroke="white" stroke-width="1.0" stroke-linecap="round" stroke-linejoin="round" fill="#ffffff" d="M25.0 35.0 C43.0 42.0 117.0 42.0 135.0 35.0 C117.0 28.0 43.0 28.0 25.0 35.0 M25.0 35.0 L25.0 91.0 C43.0 101.0 117.0 101.0 135.0 91.0 L135.0 35.0 "></path><path stroke="#000000" stroke-width="1.0" stroke-linecap="round" stroke-linejoin="round" fill="none" d="M25.0 35.0 C43.0 42.0 117.0 42.0 135.0 35.0 C117.0 28.0 43.0 28.0 25.0 35.0 M25.0 35.0 L25.0 91.0 C43.0 101.0 117.0 101.0 135.0 91.0 L135.0 35.0 "></path><path stroke="#000000" stroke-width="1.0" stroke-linecap="round" stroke-linejoin="round" fill="white" d="M25.0 161.0 L285.0 161.0 L285.0 189.0 L25.0 189.0 z"></path><path stroke="#000000" stroke-width="1.0" stroke-linecap="round" stroke-linejoin="round" fill="white" d="M25.0 231.0 L285.0 231.0 L285.0 259.0 L25.0 259.0 z"></path><path stroke="#000000" stroke-width="1.0" stroke-linecap="round" stroke-linejoin="round" fill="none" d="M75.0 133.0 L75.0 161.0 "></path><path stroke="#000000" stroke-width="1.0" stroke-linecap="round" stroke-linejoin="round" fill="none" d="M165.0 189.0 L165.0 231.0 "></path><text x="40" y="111" font-family="sans-serif" font-size="16" stroke="none" fill="#000000"><![CDATA[OSC Model]]></text><text x="40" y="125" font-family="sans-serif" font-size="16" stroke="none" fill="#000000"><![CDATA[Instance]]></text><text x="40" y="181" font-family="sans-serif" font-size="16" stroke="none" fill="#000000"><![CDATA[OSC Director]]></text><text x="43" y="251" font-family="sans-serif" font-size="16" stroke="none" fill="#000000"><![CDATA[Simulator Core]]></text></g></svg>