<?xml version="1.0" encoding="UTF-8"?>
<!DOCTYPE svg PUBLIC "-//W3C//DTD SVG 1.1//EN" "http://www.w3.org/Graphics/SVG/1.1/DTD/svg11.dtd">
<svg xmlns="http://www.w3.org/2000/svg" xmlns:xlink="http://www.w3.org/1999/xlink" version="1.1" width="968px" height="22px" viewBox="-0.5 -0.5 968 22" style="background-color: rgb(255, 255, 255);"><defs/><g><path d="M 0 1 L 87 1 L 100 11 L 87 21 L 0 21 L 13 11 Z" fill="#0082a5" stroke="rgb(0, 0, 0)" stroke-miterlimit="10" pointer-events="all"/><path d="M 173 1 L 260 1 L 273 11 L 260 21 L 173 21 L 186 11 Z" fill="rgb(255, 255, 255)" stroke="rgb(0, 0, 0)" stroke-miterlimit="10" pointer-events="all"/><path d="M 260 1 L 347 1 L 360 11 L 347 21 L 260 21 L 273 11 Z" fill="rgb(255, 255, 255)" stroke="rgb(0, 0, 0)" stroke-miterlimit="10" pointer-events="all"/><path d="M 347 1 L 434 1 L 447 11 L 434 21 L 347 21 L 360 11 Z" fill="rgb(255, 255, 255)" stroke="rgb(0, 0, 0)" stroke-miterlimit="10" pointer-events="all"/><path d="M 433 1 L 520 1 L 533 11 L 520 21 L 433 21 L 446 11 Z" fill="rgb(255, 255, 255)" stroke="rgb(0, 0, 0)" stroke-miterlimit="10" pointer-events="all"/><path d="M 520 1 L 607 1 L 620 11 L 607 21 L 520 21 L 533 11 Z" fill="rgb(255, 255, 255)" stroke="rgb(0, 0, 0)" stroke-miterlimit="10" pointer-events="all"/><path d="M 607 1 L 694 1 L 707 11 L 694 21 L 607 21 L 620 11 Z" fill="rgb(255, 255, 255)" stroke="rgb(0, 0, 0)" stroke-miterlimit="10" pointer-events="all"/><path d="M 693 1 L 780 1 L 793 11 L 780 21 L 693 21 L 706 11 Z" fill="rgb(255, 255, 255)" stroke="rgb(0, 0, 0)" stroke-miterlimit="10" pointer-events="all"/><path d="M 87 1 L 174 1 L 187 11 L 174 21 L 87 21 L 100 11 Z" fill="#75bdd1" stroke="rgb(0, 0, 0)" stroke-width="2" stroke-miterlimit="10" pointer-events="all"/><path d="M 780 1 L 867 1 L 880 11 L 867 21 L 780 21 L 793 11 Z" fill="rgb(255, 255, 255)" stroke="rgb(0, 0, 0)" stroke-miterlimit="10" pointer-events="all"/><path d="M 867 1 L 954 1 L 967 11 L 954 21 L 867 21 L 880 11 Z" fill="rgb(255, 255, 255)" stroke="rgb(0, 0, 0)" stroke-miterlimit="10" pointer-events="all"/></g></svg>